<svg version="1.1" viewBox="0.0 0.0 775.5748031496063 507.8976377952756" fill="none" stroke="none" stroke-linecap="square" stroke-miterlimit="10" xmlns:xlink="http://www.w3.org/1999/xlink" xmlns="http://www.w3.org/2000/svg"><clipPath id="p.0"><path d="m0 0l775.5748 0l0 507.89764l-775.5748 0l0 -507.89764z" clip-rule="nonzero"/></clipPath><g clip-path="url(#p.0)"><path fill="#000000" fill-opacity="0.0" d="m0 0l775.5748 0l0 507.89764l-775.5748 0z" fill-rule="evenodd"/><path fill="#000000" fill-opacity="0.0" d="m269.84848 163.30446c4.5203857 13.537323 -0.54800415 28.554718 0 42.81627c0.12747192 3.3168945 -2.7624207 8.117615 0 9.958008c8.29187 5.5242615 20.046509 0.6434326 29.874023 -0.9973755c9.544769 -1.5935822 20.222504 1.3430481 28.876648 -2.9868774c4.8320312 -2.4176178 2.9868774 -10.528641 2.9868774 -15.931747c0 -9.67691 6.193695 -25.817352 -2.9868774 -28.876648c-18.904205 -6.2995605 -39.819214 -1.9921265 -59.745422 -1.9921265" fill-rule="evenodd"/><path stroke="#000000" stroke-width="1.0" stroke-linejoin="round" stroke-linecap="butt" d="m269.84848 163.30446c4.5203857 13.537323 -0.54800415 28.554718 0 42.81627c0.12747192 3.3168945 -2.7624207 8.117615 0 9.958008c8.29187 5.5242615 20.046509 0.6434326 29.874023 -0.9973755c9.544769 -1.5935822 20.222504 1.3430481 28.876648 -2.9868774c4.8320312 -2.4176178 2.9868774 -10.528641 2.9868774 -15.931747c0 -9.67691 6.193695 -25.817352 -2.9868774 -28.876648c-18.904205 -6.2995605 -39.819214 -1.9921265 -59.745422 -1.9921265" fill-rule="evenodd"/><path fill="#000000" fill-opacity="0.0" d="m391.51697 142.74442c-1.6647949 7.4936523 -6.842621 14.645157 -5.8923645 22.262466c0.21783447 1.7462769 3.4802246 0.71881104 5.2388306 0.65353394c9.901642 -0.36749268 19.876617 -1.4293823 29.46457 -3.929123c10.895416 -2.8406372 26.966003 7.044449 33.72177 -1.9632568c4.585602 -6.1141205 4.7530518 -17.516876 -0.65353394 -22.91864c-6.02652 -6.021164 -17.057434 0.17649841 -25.538055 0.9842529c-10.631775 1.0126495 -22.483826 -1.0452576 -31.75589 4.254593" fill-rule="evenodd"/><path stroke="#000000" stroke-width="1.0" stroke-linejoin="round" stroke-linecap="butt" d="m391.51697 142.74442c-1.6647949 7.4936523 -6.842621 14.645157 -5.8923645 22.262466c0.21783447 1.7462769 3.4802246 0.71881104 5.2388306 0.65353394c9.901642 -0.36749268 19.876617 -1.4293823 29.46457 -3.929123c10.895416 -2.8406372 26.966003 7.044449 33.72177 -1.9632568c4.585602 -6.1141205 4.7530518 -17.516876 -0.65353394 -22.91864c-6.02652 -6.021164 -17.057434 0.17649841 -25.538055 0.9842529c-10.631775 1.0126495 -22.483826 -1.0452576 -31.75589 4.254593" fill-rule="evenodd"/><path fill="#000000" fill-opacity="0.0" d="m260.88715 138.81627c2.3676453 3.2549438 -1.3271484 12.577988 2.6194153 11.787399c4.5403137 -0.9095154 5.190979 -9.824142 9.821533 -9.824142c2.249878 0 1.5287476 4.3012085 1.6351624 6.5485535c0.13943481 2.9452057 -4.654785 3.6256561 -6.8740234 5.5669403c-1.3371582 1.1696777 -5.67099 3.2515564 -3.9291382 3.6010437c3.1756897 0.6371765 9.632263 -2.3418121 8.183746 -5.238846c-1.5138245 -3.0276031 0.32806396 6.764633 0.32806396 10.149612" fill-rule="evenodd"/><path stroke="#000000" stroke-width="1.0" stroke-linejoin="round" stroke-linecap="butt" d="m260.88715 138.81627c2.3676453 3.2549438 -1.3271484 12.577988 2.6194153 11.787399c4.5403137 -0.9095154 5.190979 -9.824142 9.821533 -9.824142c2.249878 0 1.5287476 4.3012085 1.6351624 6.5485535c0.13943481 2.9452057 -4.654785 3.6256561 -6.8740234 5.5669403c-1.3371582 1.1696777 -5.67099 3.2515564 -3.9291382 3.6010437c3.1756897 0.6371765 9.632263 -2.3418121 8.183746 -5.238846c-1.5138245 -3.0276031 0.32806396 6.764633 0.32806396 10.149612" fill-rule="evenodd"/><path fill="#000000" fill-opacity="0.0" d="m271.3622 137.50656c0.32806396 2.9461975 0.32806396 2.9461975 0.65615845 5.892395" fill-rule="evenodd"/><path stroke="#000000" stroke-width="1.0" stroke-linejoin="round" stroke-linecap="butt" d="m271.3622 137.50656c0.32806396 2.9461975 0.32806396 2.9461975 0.65615845 5.892395" fill-rule="evenodd"/><path fill="#000000" fill-opacity="0.0" d="m283.1496 137.83464c2.5921326 4.811844 1.7563171 10.957016 0.9816284 16.367462" fill-rule="evenodd"/><path stroke="#000000" stroke-width="1.0" stroke-linejoin="round" stroke-linecap="butt" d="m283.1496 137.83464c2.5921326 4.811844 1.7563171 10.957016 0.9816284 16.367462" fill-rule="evenodd"/><path fill="#000000" fill-opacity="0.0" d="m291.33688 134.23097c-1.2163696 3.6471558 -1.5020752 7.6194916 -1.3097229 11.45932" fill-rule="evenodd"/><path stroke="#000000" stroke-width="1.0" stroke-linejoin="round" stroke-linecap="butt" d="m291.33688 134.23097c-1.2163696 3.6471558 -1.5020752 7.6194916 -1.3097229 11.45932" fill-rule="evenodd"/><path fill="#000000" fill-opacity="0.0" d="m284.13123 148.30971c2.3246765 -1.2511902 4.6381836 -2.5295258 6.876648 -3.929123" fill-rule="evenodd"/><path stroke="#000000" stroke-width="1.0" stroke-linejoin="round" stroke-linecap="butt" d="m284.13123 148.30971c2.3246765 -1.2511902 4.6381836 -2.5295258 6.876648 -3.929123" fill-rule="evenodd"/><path fill="#000000" fill-opacity="0.0" d="m280.53018 151.58423c4.466919 -1.1171875 11.787415 2.5975952 11.787415 7.2020874" fill-rule="evenodd"/><path stroke="#000000" stroke-width="1.0" stroke-linejoin="round" stroke-linecap="butt" d="m280.53018 151.58423c4.466919 -1.1171875 11.787415 2.5975952 11.787415 7.2020874" fill-rule="evenodd"/><path fill="#000000" fill-opacity="0.0" d="m291.6614 147.65617c3.2690735 -0.5459442 6.4312134 -1.6860199 9.496063 -2.9475098" fill-rule="evenodd"/><path stroke="#000000" stroke-width="1.0" stroke-linejoin="round" stroke-linecap="butt" d="m291.6614 147.65617c3.2690735 -0.5459442 6.4312134 -1.6860199 9.496063 -2.9475098" fill-rule="evenodd"/><path fill="#000000" fill-opacity="0.0" d="m295.26248 137.83464c2.3145752 6.651535 4.5852966 13.58194 4.5852966 20.62468" fill-rule="evenodd"/><path stroke="#000000" stroke-width="1.0" stroke-linejoin="round" stroke-linecap="butt" d="m295.26248 137.83464c2.3145752 6.651535 4.5852966 13.58194 4.5852966 20.62468" fill-rule="evenodd"/><path fill="#000000" fill-opacity="0.0" d="m297.8819 147.98163c-1.4724426 1.4737549 -1.4724426 1.4737549 -2.9448853 2.9475098" fill-rule="evenodd"/><path stroke="#000000" stroke-width="1.0" stroke-linejoin="round" stroke-linecap="butt" d="m297.8819 147.98163c-1.4724426 1.4737549 -1.4724426 1.4737549 -2.9448853 2.9475098" fill-rule="evenodd"/><path fill="#000000" fill-opacity="0.0" d="m298.53806 147.98163c1.3097229 1.1469879 1.3097229 1.1469879 2.6194153 2.2939606" fill-rule="evenodd"/><path stroke="#000000" stroke-width="1.0" stroke-linejoin="round" stroke-linecap="butt" d="m298.53806 147.98163c1.3097229 1.1469879 1.3097229 1.1469879 2.6194153 2.2939606" fill-rule="evenodd"/><path fill="#000000" fill-opacity="0.0" d="m305.36746 140.07874c0.7758179 6.219101 1.5552979 13.7155 -2.2939758 18.661423" fill-rule="evenodd"/><path stroke="#000000" stroke-width="1.0" stroke-linejoin="round" stroke-linecap="butt" d="m305.36746 140.07874c0.7758179 6.219101 1.5552979 13.7155 -2.2939758 18.661423" fill-rule="evenodd"/><path fill="#000000" fill-opacity="0.0" d="m307.33072 140.07942c3.9960327 -3.9960327 0.41854858 11.641724 2.9475098 16.695541c1.2128601 2.4237823 7.1312866 -2.6835327 6.220459 -5.2362213" fill-rule="evenodd"/><path stroke="#000000" stroke-width="1.0" stroke-linejoin="round" stroke-linecap="butt" d="m307.33072 140.07942c3.9960327 -3.9960327 0.41854858 11.641724 2.9475098 16.695541c1.2128601 2.4237823 7.1312866 -2.6835327 6.220459 -5.2362213" fill-rule="evenodd"/><path fill="#000000" fill-opacity="0.0" d="m392.77927 111.5958c-1.8907471 4.4134445 -2.9986572 10.65435 0 14.404198c1.9848328 2.4820251 -5.7948303 9.167984 -2.6167908 9.167984c2.239563 0 3.9092102 -2.5821838 4.9107666 -4.585312" fill-rule="evenodd"/><path stroke="#000000" stroke-width="1.0" stroke-linejoin="round" stroke-linecap="butt" d="m392.77927 111.5958c-1.8907471 4.4134445 -2.9986572 10.65435 0 14.404198c1.9848328 2.4820251 -5.7948303 9.167984 -2.6167908 9.167984c2.239563 0 3.9092102 -2.5821838 4.9107666 -4.585312" fill-rule="evenodd"/><path fill="#000000" fill-opacity="0.0" d="m397.03674 114.215225c0.02319336 0.20895386 1.3275757 20.064072 1.6377869 20.296585c2.7902527 2.091278 6.361603 -3.167694 9.821533 -3.6010437" fill-rule="evenodd"/><path stroke="#000000" stroke-width="1.0" stroke-linejoin="round" stroke-linecap="butt" d="m397.03674 114.215225c0.02319336 0.20895386 1.3275757 20.064072 1.6377869 20.296585c2.7902527 2.091278 6.361603 -3.167694 9.821533 -3.6010437" fill-rule="evenodd"/><path fill="#000000" fill-opacity="0.0" d="m400.30972 115.52493c0.9829407 2.1272964 0.9829407 2.1272964 1.9658813 4.254593" fill-rule="evenodd"/><path stroke="#000000" stroke-width="1.0" stroke-linejoin="round" stroke-linecap="butt" d="m400.30972 115.52493c0.9829407 2.1272964 0.9829407 2.1272964 1.9658813 4.254593" fill-rule="evenodd"/><path fill="#000000" fill-opacity="0.0" d="m405.87665 112.249344c-0.19689941 3.143837 -0.88339233 6.3501663 -2.2913513 9.167976" fill-rule="evenodd"/><path stroke="#000000" stroke-width="1.0" stroke-linejoin="round" stroke-linecap="butt" d="m405.87665 112.249344c-0.19689941 3.143837 -0.88339233 6.3501663 -2.2913513 9.167976" fill-rule="evenodd"/><path fill="#000000" fill-opacity="0.0" d="m398.34647 125.67191c6.384491 -3.437004 6.384491 -3.437004 12.769012 -6.874016" fill-rule="evenodd"/><path stroke="#000000" stroke-width="1.0" stroke-linejoin="round" stroke-linecap="butt" d="m398.34647 125.67191c6.384491 -3.437004 6.384491 -3.437004 12.769012 -6.874016" fill-rule="evenodd"/><path fill="#000000" fill-opacity="0.0" d="m401.61942 112.90551c0.68188477 5.4413757 -0.2866211 11.234886 1.6378174 16.370079" fill-rule="evenodd"/><path stroke="#000000" stroke-width="1.0" stroke-linejoin="round" stroke-linecap="butt" d="m401.61942 112.90551c0.68188477 5.4413757 -0.2866211 11.234886 1.6378174 16.370079" fill-rule="evenodd"/><path fill="#000000" fill-opacity="0.0" d="m400.6378 125.34646c-0.8188782 2.6181107 -0.8188782 2.6181107 -1.6377869 5.2362137" fill-rule="evenodd"/><path stroke="#000000" stroke-width="1.0" stroke-linejoin="round" stroke-linecap="butt" d="m400.6378 125.34646c-0.8188782 2.6181107 -0.8188782 2.6181107 -1.6377869 5.2362137" fill-rule="evenodd"/><path fill="#000000" fill-opacity="0.0" d="m401.61942 122.727036c2.8961792 2.4786377 6.66568 4.582672 10.477692 4.582672" fill-rule="evenodd"/><path stroke="#000000" stroke-width="1.0" stroke-linejoin="round" stroke-linecap="butt" d="m401.61942 122.727036c2.8961792 2.4786377 6.66568 4.582672 10.477692 4.582672" fill-rule="evenodd"/><path fill="#000000" fill-opacity="0.0" d="m414.38846 117.48819c0.7827759 3.3272476 1.7195435 6.6316147 2.9475098 9.821518" fill-rule="evenodd"/><path stroke="#000000" stroke-width="1.0" stroke-linejoin="round" stroke-linecap="butt" d="m414.38846 117.48819c0.7827759 3.3272476 1.7195435 6.6316147 2.9475098 9.821518" fill-rule="evenodd"/><path fill="#000000" fill-opacity="0.0" d="m413.40683 118.79888c3.5300903 -1.3229141 7.2211304 -6.156334 10.477692 -4.2572174c3.1624146 1.844223 1.9632568 7.144882 1.9632568 10.805771" fill-rule="evenodd"/><path stroke="#000000" stroke-width="1.0" stroke-linejoin="round" stroke-linecap="butt" d="m413.40683 118.79888c3.5300903 -1.3229141 7.2211304 -6.156334 10.477692 -4.2572174c3.1624146 1.844223 1.9632568 7.144882 1.9632568 10.805771" fill-rule="evenodd"/><path fill="#000000" fill-opacity="0.0" d="m417.66403 122.727036c2.3001404 -1.0732269 4.605011 -2.138054 6.8740234 -3.275589" fill-rule="evenodd"/><path stroke="#000000" stroke-width="1.0" stroke-linejoin="round" stroke-linecap="butt" d="m417.66403 122.727036c2.3001404 -1.0732269 4.605011 -2.138054 6.8740234 -3.275589" fill-rule="evenodd"/><path fill="#000000" fill-opacity="0.0" d="m413.7349 126.656166c4.074707 -0.6793442 8.19339 -1.3146744 12.1128845 -2.619423" fill-rule="evenodd"/><path stroke="#000000" stroke-width="1.0" stroke-linejoin="round" stroke-linecap="butt" d="m413.7349 126.656166c4.074707 -0.6793442 8.19339 -1.3146744 12.1128845 -2.619423" fill-rule="evenodd"/><path fill="#000000" fill-opacity="0.0" d="m422.57547 109.30446c-3.557373 7.706444 -9.244843 18.86531 -3.6036987 25.207352c1.7707214 1.9907074 6.548584 -1.9184113 6.548584 -4.582672" fill-rule="evenodd"/><path stroke="#000000" stroke-width="1.0" stroke-linejoin="round" stroke-linecap="butt" d="m422.57547 109.30446c-3.557373 7.706444 -9.244843 18.86531 -3.6036987 25.207352c1.7707214 1.9907074 6.548584 -1.9184113 6.548584 -4.582672" fill-rule="evenodd"/><path fill="#000000" fill-opacity="0.0" d="m430.43045 113.88714c1.4151917 2.5735703 3.699646 8.499565 5.8950195 6.5485535c2.4216309 -2.1520767 -4.9717712 -5.641472 -8.186371 -5.238838" fill-rule="evenodd"/><path stroke="#000000" stroke-width="1.0" stroke-linejoin="round" stroke-linecap="butt" d="m430.43045 113.88714c1.4151917 2.5735703 3.699646 8.499565 5.8950195 6.5485535c2.4216309 -2.1520767 -4.9717712 -5.641472 -8.186371 -5.238838" fill-rule="evenodd"/><path fill="#000000" fill-opacity="0.0" d="m445.8189 122.07087c1.1229858 -2.2474976 1.4484558 -5.753624 -0.32809448 -7.5301895" fill-rule="evenodd"/><path stroke="#000000" stroke-width="1.0" stroke-linejoin="round" stroke-linecap="butt" d="m445.8189 122.07087c1.1229858 -2.2474976 1.4484558 -5.753624 -0.32809448 -7.5301895" fill-rule="evenodd"/><path fill="#000000" fill-opacity="0.0" d="m426.8294 125.67191c8.043701 -1.4950714 16.360626 -1.6824493 24.228333 -3.926506" fill-rule="evenodd"/><path stroke="#000000" stroke-width="1.0" stroke-linejoin="round" stroke-linecap="butt" d="m426.8294 125.67191c8.043701 -1.4950714 16.360626 -1.6824493 24.228333 -3.926506" fill-rule="evenodd"/><path fill="#000000" fill-opacity="0.0" d="m438.28873 120.10761c-1.5350037 3.4884262 -3.0818787 6.9718018 -4.5827026 10.4750595" fill-rule="evenodd"/><path stroke="#000000" stroke-width="1.0" stroke-linejoin="round" stroke-linecap="butt" d="m438.28873 120.10761c-1.5350037 3.4884262 -3.0818787 6.9718018 -4.5827026 10.4750595" fill-rule="evenodd"/><path fill="#000000" fill-opacity="0.0" d="m436.32547 124.362206c3.5045166 1.8693314 7.515564 2.7819595 11.456696 3.275589" fill-rule="evenodd"/><path stroke="#000000" stroke-width="1.0" stroke-linejoin="round" stroke-linecap="butt" d="m436.32547 124.362206c3.5045166 1.8693314 7.515564 2.7819595 11.456696 3.275589" fill-rule="evenodd"/><path fill="#000000" fill-opacity="0.0" d="m430.43045 128.94751c0.8188782 2.1272888 0.8188782 2.1272888 1.6377869 4.254593" fill-rule="evenodd"/><path stroke="#000000" stroke-width="1.0" stroke-linejoin="round" stroke-linecap="butt" d="m430.43045 128.94751c0.8188782 2.1272888 0.8188782 2.1272888 1.6377869 4.254593" fill-rule="evenodd"/><path fill="#000000" fill-opacity="0.0" d="m433.04987 129.27605c0.9985657 -0.1250763 2.2095032 1.3149109 1.9658813 2.291336" fill-rule="evenodd"/><path stroke="#000000" stroke-width="1.0" stroke-linejoin="round" stroke-linecap="butt" d="m433.04987 129.27605c0.9985657 -0.1250763 2.2095032 1.3149109 1.9658813 2.291336" fill-rule="evenodd"/><path fill="#000000" fill-opacity="0.0" d="m437.3071 129.60104c0.16403198 1.1456757 0.16403198 1.1456757 0.32806396 2.2913513" fill-rule="evenodd"/><path stroke="#000000" stroke-width="1.0" stroke-linejoin="round" stroke-linecap="butt" d="m437.3071 129.60104c0.16403198 1.1456757 0.16403198 1.1456757 0.32806396 2.2913513" fill-rule="evenodd"/><path fill="#000000" fill-opacity="0.0" d="m437.63516 128.29134c1.8676758 0.5348511 6.099945 2.3877258 4.582672 3.601059" fill-rule="evenodd"/><path stroke="#000000" stroke-width="1.0" stroke-linejoin="round" stroke-linecap="butt" d="m437.63516 128.29134c1.8676758 0.5348511 6.099945 2.3877258 4.582672 3.601059" fill-rule="evenodd"/><path fill="#000000" fill-opacity="0.0" d="m440.25076 115.19685c-0.34075928 2.3990479 1.858551 5.548935 4.2572327 5.8923874" fill-rule="evenodd"/><path stroke="#000000" stroke-width="1.0" stroke-linejoin="round" stroke-linecap="butt" d="m440.25076 115.19685c-0.34075928 2.3990479 1.858551 5.548935 4.2572327 5.8923874" fill-rule="evenodd"/><path fill="#000000" fill-opacity="0.0" d="m336.7953 182.31233c12.768372 -5.463806 22.393677 -18.23323 36.013123 -20.952759" fill-rule="evenodd"/><path stroke="#000000" stroke-width="1.0" stroke-linejoin="round" stroke-linecap="butt" d="m336.7953 182.31233c12.768372 -5.463806 22.393677 -18.23323 36.013123 -20.952759" fill-rule="evenodd"/><path fill="#000000" fill-opacity="0.0" d="m372.15485 161.35957c-4.235626 -0.4714508 -8.484192 -1.3641663 -12.4409485 -2.9474945" fill-rule="evenodd"/><path stroke="#000000" stroke-width="1.0" stroke-linejoin="round" stroke-linecap="butt" d="m372.15485 161.35957c-4.235626 -0.4714508 -8.484192 -1.3641663 -12.4409485 -2.9474945" fill-rule="evenodd"/><path fill="#000000" fill-opacity="0.0" d="m369.20734 162.99475c-1.4646301 3.5832825 -2.9314575 7.1678467 -4.2545776 10.805771" fill-rule="evenodd"/><path stroke="#000000" stroke-width="1.0" stroke-linejoin="round" stroke-linecap="butt" d="m369.20734 162.99475c-1.4646301 3.5832825 -2.9314575 7.1678467 -4.2545776 10.805771" fill-rule="evenodd"/><path fill="#000000" fill-opacity="0.0" d="m522.2887 144.24147c0.9829712 0.81889343 0.9829712 0.81889343 1.9658813 1.6378021" fill-rule="evenodd"/><path stroke="#000000" stroke-width="1.0" stroke-linejoin="round" stroke-linecap="butt" d="m522.2887 144.24147c0.9829712 0.81889343 0.9829712 0.81889343 1.9658813 1.6378021" fill-rule="evenodd"/><path fill="#000000" fill-opacity="0.0" d="m523.9269 145.88031c-3.498169 5.8279266 -5.267334 14.355026 -1.9658813 20.2966c3.1436768 5.6576233 12.940979 -0.854187 19.317566 -1.9632568c4.6244507 -0.8043213 12.932129 0.41093445 13.422607 -4.2572174c0.67510986 -6.426056 4.3372803 -16.855621 -1.6378174 -19.314957c-7.871155 -3.2397614 -17.02362 0 -25.5354 0c-3.1813965 0 -10.015442 -2.1566162 -9.493469 0.98161316c0.4869995 2.9279175 3.5890503 4.7329865 5.236206 7.2021027" fill-rule="evenodd"/><path stroke="#000000" stroke-width="1.0" stroke-linejoin="round" stroke-linecap="butt" d="m523.9269 145.88031c-3.498169 5.8279266 -5.267334 14.355026 -1.9658813 20.2966c3.1436768 5.6576233 12.940979 -0.854187 19.317566 -1.9632568c4.6244507 -0.8043213 12.932129 0.41093445 13.422607 -4.2572174c0.67510986 -6.426056 4.3372803 -16.855621 -1.6378174 -19.314957c-7.871155 -3.2397614 -17.02362 0 -25.5354 0c-3.1813965 0 -10.015442 -2.1566162 -9.493469 0.98161316c0.4869995 2.9279175 3.5890503 4.7329865 5.236206 7.2021027" fill-rule="evenodd"/><path fill="#000000" fill-opacity="0.0" d="m554.7008 144.56955c3.9172363 0.32447815 7.8567505 -0.32807922 11.7873535 -0.32807922" fill-rule="evenodd"/><path stroke="#000000" stroke-width="1.0" stroke-linejoin="round" stroke-linecap="butt" d="m554.7008 144.56955c3.9172363 0.32447815 7.8567505 -0.32807922 11.7873535 -0.32807922" fill-rule="evenodd"/><path fill="#000000" fill-opacity="0.0" d="m553.7192 155.3727c5.2390747 0 10.4747925 -0.32807922 15.713867 -0.32807922" fill-rule="evenodd"/><path stroke="#000000" stroke-width="1.0" stroke-linejoin="round" stroke-linecap="butt" d="m553.7192 155.3727c5.2390747 0 10.4747925 -0.32807922 15.713867 -0.32807922" fill-rule="evenodd"/><path fill="#000000" fill-opacity="0.0" d="m516.06824 112.81102c0.49084473 1.4737549 0.49084473 1.4737549 0.9816284 2.9475098" fill-rule="evenodd"/><path stroke="#000000" stroke-width="1.0" stroke-linejoin="round" stroke-linecap="butt" d="m516.06824 112.81102c0.49084473 1.4737549 0.49084473 1.4737549 0.9816284 2.9475098" fill-rule="evenodd"/><path fill="#000000" fill-opacity="0.0" d="m514.4304 118.703094c2.9987793 -2.9947739 10.477722 -11.440178 10.477722 -7.202095c0 4.479683 -10.216858 7.546623 -7.5302124 11.131233c1.6824951 2.2447815 5.67511 -3.218834 8.183777 -1.9632568" fill-rule="evenodd"/><path stroke="#000000" stroke-width="1.0" stroke-linejoin="round" stroke-linecap="butt" d="m514.4304 118.703094c2.9987793 -2.9947739 10.477722 -11.440178 10.477722 -7.202095c0 4.479683 -10.216858 7.546623 -7.5302124 11.131233c1.6824951 2.2447815 5.67511 -3.218834 8.183777 -1.9632568" fill-rule="evenodd"/><path fill="#000000" fill-opacity="0.0" d="m519.9974 122.632545c-1.8004761 3.9586868 -3.3127441 8.135963 -3.9291382 12.440941" fill-rule="evenodd"/><path stroke="#000000" stroke-width="1.0" stroke-linejoin="round" stroke-linecap="butt" d="m519.9974 122.632545c-1.8004761 3.9586868 -3.3127441 8.135963 -3.9291382 12.440941" fill-rule="evenodd"/><path fill="#000000" fill-opacity="0.0" d="m523.92755 123.614174c-2.0115967 2.5861435 -6.958008 5.9564285 -4.9107666 8.514442c2.1670532 2.7077026 9.062439 -0.8160095 9.493469 -4.257225" fill-rule="evenodd"/><path stroke="#000000" stroke-width="1.0" stroke-linejoin="round" stroke-linecap="butt" d="m523.92755 123.614174c-2.0115967 2.5861435 -6.958008 5.9564285 -4.9107666 8.514442c2.1670532 2.7077026 9.062439 -0.8160095 9.493469 -4.257225" fill-rule="evenodd"/><path fill="#000000" fill-opacity="0.0" d="m530.147 117.068245c1.9309692 2.8945312 4.4850464 5.3258286 6.8740234 7.8556366" fill-rule="evenodd"/><path stroke="#000000" stroke-width="1.0" stroke-linejoin="round" stroke-linecap="butt" d="m530.147 117.068245c1.9309692 2.8945312 4.4850464 5.3258286 6.8740234 7.8556366" fill-rule="evenodd"/><path fill="#000000" fill-opacity="0.0" d="m529.16534 118.702866c3.286377 -2.9231567 7.5235596 -8.514488 11.456726 -6.545929c2.4472046 1.2248535 0.2682495 5.4746933 0.6561279 8.183723" fill-rule="evenodd"/><path stroke="#000000" stroke-width="1.0" stroke-linejoin="round" stroke-linecap="butt" d="m529.16534 118.702866c3.286377 -2.9231567 7.5235596 -8.514488 11.456726 -6.545929c2.4472046 1.2248535 0.2682495 5.4746933 0.6561279 8.183723" fill-rule="evenodd"/><path fill="#000000" fill-opacity="0.0" d="m531.45667 119.685036c2.946228 -2.291336 2.946228 -2.291336 5.892395 -4.582672" fill-rule="evenodd"/><path stroke="#000000" stroke-width="1.0" stroke-linejoin="round" stroke-linecap="butt" d="m531.45667 119.685036c2.946228 -2.291336 2.946228 -2.291336 5.892395 -4.582672" fill-rule="evenodd"/><path fill="#000000" fill-opacity="0.0" d="m532.7664 124.92388c3.460266 -1.1518784 6.322693 -3.9571457 8.51178 -6.874016" fill-rule="evenodd"/><path stroke="#000000" stroke-width="1.0" stroke-linejoin="round" stroke-linecap="butt" d="m532.7664 124.92388c3.460266 -1.1518784 6.322693 -3.9571457 8.51178 -6.874016" fill-rule="evenodd"/><path fill="#000000" fill-opacity="0.0" d="m533.09186 106.91863c2.3544922 7.650139 4.81781 27.266167 10.477722 21.6063" fill-rule="evenodd"/><path stroke="#000000" stroke-width="1.0" stroke-linejoin="round" stroke-linecap="butt" d="m533.09186 106.91863c2.3544922 7.650139 4.81781 27.266167 10.477722 21.6063" fill-rule="evenodd"/><path fill="#000000" fill-opacity="0.0" d="m550.44617 111.8294c0.32678223 1.3097076 0.32678223 1.3097076 0.65356445 2.619423" fill-rule="evenodd"/><path stroke="#000000" stroke-width="1.0" stroke-linejoin="round" stroke-linecap="butt" d="m550.44617 111.8294c0.32678223 1.3097076 0.32678223 1.3097076 0.65356445 2.619423" fill-rule="evenodd"/><path fill="#000000" fill-opacity="0.0" d="m545.20734 115.10236c1.9645996 1.4737549 1.9645996 1.4737549 3.9291382 2.9475021" fill-rule="evenodd"/><path stroke="#000000" stroke-width="1.0" stroke-linejoin="round" stroke-linecap="butt" d="m545.20734 115.10236c1.9645996 1.4737549 1.9645996 1.4737549 3.9291382 2.9475021" fill-rule="evenodd"/><path fill="#000000" fill-opacity="0.0" d="m548.4803 122.96063c3.8032227 -4.7559204 9.134766 -8.405121 14.7323 -10.803154" fill-rule="evenodd"/><path stroke="#000000" stroke-width="1.0" stroke-linejoin="round" stroke-linecap="butt" d="m548.4803 122.96063c3.8032227 -4.7559204 9.134766 -8.405121 14.7323 -10.803154" fill-rule="evenodd"/><path fill="#000000" fill-opacity="0.0" d="m552.4094 106.59055c0.45373535 8.408806 -0.44415283 16.873947 -1.6377563 25.209969" fill-rule="evenodd"/><path stroke="#000000" stroke-width="1.0" stroke-linejoin="round" stroke-linecap="butt" d="m552.4094 106.59055c0.45373535 8.408806 -0.44415283 16.873947 -1.6377563 25.209969" fill-rule="evenodd"/><path fill="#000000" fill-opacity="0.0" d="m551.7533 120.01312c2.418274 4.1743393 4.915161 8.654007 8.839905 11.45932" fill-rule="evenodd"/><path stroke="#000000" stroke-width="1.0" stroke-linejoin="round" stroke-linecap="butt" d="m551.7533 120.01312c2.418274 4.1743393 4.915161 8.654007 8.839905 11.45932" fill-rule="evenodd"/><path fill="#000000" fill-opacity="0.0" d="m521.6352 115.43044c1.1798096 2.1907196 2.5583496 4.445488 4.5826416 5.892395" fill-rule="evenodd"/><path stroke="#000000" stroke-width="1.0" stroke-linejoin="round" stroke-linecap="butt" d="m521.6352 115.43044c1.1798096 2.1907196 2.5583496 4.445488 4.5826416 5.892395" fill-rule="evenodd"/><path fill="#000000" fill-opacity="0.0" d="m445.68103 264.11676c7.542572 7.5425415 9.619507 20.64273 7.5275574 31.102356c-1.0307922 5.1539917 -6.1717834 13.723724 -1.3070679 15.713928c24.845428 10.164459 53.365753 7.2020874 80.20999 7.2020874c11.031372 0 27.659058 8.304474 33.068237 -1.3097229c5.0584106 -8.990723 -2.3105469 -20.503479 -3.2756348 -30.774261c-1.0037842 -10.683197 6.3757935 -26.233856 -2.6193848 -32.084c-18.23816 -11.861389 -43.42987 -5.1846924 -65.14963 -3.929123c-16.67514 0.96395874 -36.58438 -8.515686 -50.091858 1.3097076c-5.9918213 4.3584747 3.6010437 14.52504 3.6010437 21.934372" fill-rule="evenodd"/><path stroke="#000000" stroke-width="1.0" stroke-linejoin="round" stroke-linecap="butt" d="m445.68103 264.11676c7.542572 7.5425415 9.619507 20.64273 7.5275574 31.102356c-1.0307922 5.1539917 -6.1717834 13.723724 -1.3070679 15.713928c24.845428 10.164459 53.365753 7.2020874 80.20999 7.2020874c11.031372 0 27.659058 8.304474 33.068237 -1.3097229c5.0584106 -8.990723 -2.3105469 -20.503479 -3.2756348 -30.774261c-1.0037842 -10.683197 6.3757935 -26.233856 -2.6193848 -32.084c-18.23816 -11.861389 -43.42987 -5.1846924 -65.14963 -3.929123c-16.67514 0.96395874 -36.58438 -8.515686 -50.091858 1.3097076c-5.9918213 4.3584747 3.6010437 14.52504 3.6010437 21.934372" fill-rule="evenodd"/><path fill="#000000" fill-opacity="0.0" d="m471.2152 273.28085c3.9868164 -1.171051 7.998932 -2.3605652 12.1128845 -2.9448853" fill-rule="evenodd"/><path stroke="#000000" stroke-width="1.0" stroke-linejoin="round" stroke-linecap="butt" d="m471.2152 273.28085c3.9868164 -1.171051 7.998932 -2.3605652 12.1128845 -2.9448853" fill-rule="evenodd"/><path fill="#000000" fill-opacity="0.0" d="m469.25198 277.20996c2.972229 0.42559814 5.5992126 2.217926 8.51181 2.9475098" fill-rule="evenodd"/><path stroke="#000000" stroke-width="1.0" stroke-linejoin="round" stroke-linecap="butt" d="m469.25198 277.20996c2.972229 0.42559814 5.5992126 2.217926 8.51181 2.9475098" fill-rule="evenodd"/><path fill="#000000" fill-opacity="0.0" d="m480.70865 276.55643c-0.7304077 1.704956 -1.6345825 3.3373413 -2.6167908 4.9107666" fill-rule="evenodd"/><path stroke="#000000" stroke-width="1.0" stroke-linejoin="round" stroke-linecap="butt" d="m480.70865 276.55643c-0.7304077 1.704956 -1.6345825 3.3373413 -2.6167908 4.9107666" fill-rule="evenodd"/><path fill="#000000" fill-opacity="0.0" d="m467.61417 287.0315c5.287323 -1.5340881 10.70163 -2.5913696 16.041992 -3.9291382" fill-rule="evenodd"/><path stroke="#000000" stroke-width="1.0" stroke-linejoin="round" stroke-linecap="butt" d="m467.61417 287.0315c5.287323 -1.5340881 10.70163 -2.5913696 16.041992 -3.9291382" fill-rule="evenodd"/><path fill="#000000" fill-opacity="0.0" d="m476.45407 275.90027c1.6783447 7.3804016 2.2913208 15.0217285 2.2913208 22.590546" fill-rule="evenodd"/><path stroke="#000000" stroke-width="1.0" stroke-linejoin="round" stroke-linecap="butt" d="m476.45407 275.90027c1.6783447 7.3804016 2.2913208 15.0217285 2.2913208 22.590546" fill-rule="evenodd"/><path fill="#000000" fill-opacity="0.0" d="m489.54855 281.1391c4.4199524 -1.6364746 4.4199524 -1.6364746 8.839905 -3.2729492" fill-rule="evenodd"/><path stroke="#000000" stroke-width="1.0" stroke-linejoin="round" stroke-linecap="butt" d="m489.54855 281.1391c4.4199524 -1.6364746 4.4199524 -1.6364746 8.839905 -3.2729492" fill-rule="evenodd"/><path fill="#000000" fill-opacity="0.0" d="m494.78772 271.64566c-4.10083 8.20166 0.65615845 18.331604 0.65615845 27.501312" fill-rule="evenodd"/><path stroke="#000000" stroke-width="1.0" stroke-linejoin="round" stroke-linecap="butt" d="m494.78772 271.64566c-4.10083 8.20166 0.65615845 18.331604 0.65615845 27.501312" fill-rule="evenodd"/><path fill="#000000" fill-opacity="0.0" d="m494.13385 282.44882c-1.0032349 1.403595 -1.9900513 2.8193665 -2.9475098 4.2545776" fill-rule="evenodd"/><path stroke="#000000" stroke-width="1.0" stroke-linejoin="round" stroke-linecap="butt" d="m494.13385 282.44882c-1.0032349 1.403595 -1.9900513 2.8193665 -2.9475098 4.2545776" fill-rule="evenodd"/><path fill="#000000" fill-opacity="0.0" d="m493.4777 283.75854c2.9928894 2.584961 5.8768005 5.3375244 9.167969 7.530182" fill-rule="evenodd"/><path stroke="#000000" stroke-width="1.0" stroke-linejoin="round" stroke-linecap="butt" d="m493.4777 283.75854c2.9928894 2.584961 5.8768005 5.3375244 9.167969 7.530182" fill-rule="evenodd"/><path fill="#000000" fill-opacity="0.0" d="m505.91864 273.937c-1.0921631 3.0954285 -2.242096 6.1773987 -3.6010437 9.165344" fill-rule="evenodd"/><path stroke="#000000" stroke-width="1.0" stroke-linejoin="round" stroke-linecap="butt" d="m505.91864 273.937c-1.0921631 3.0954285 -2.242096 6.1773987 -3.6010437 9.165344" fill-rule="evenodd"/><path fill="#000000" fill-opacity="0.0" d="m502.64566 282.44882c0.2328186 5.343384 0.29830933 10.730347 -0.32806396 16.041992" fill-rule="evenodd"/><path stroke="#000000" stroke-width="1.0" stroke-linejoin="round" stroke-linecap="butt" d="m502.64566 282.44882c0.2328186 5.343384 0.29830933 10.730347 -0.32806396 16.041992" fill-rule="evenodd"/><path fill="#000000" fill-opacity="0.0" d="m502.97375 285.39618c4.3975525 -1.5297241 11.258667 -4.7194824 11.456665 -4.2572327c2.5002441 5.836029 -2.8986206 13.3845215 -7.8556213 17.351715" fill-rule="evenodd"/><path stroke="#000000" stroke-width="1.0" stroke-linejoin="round" stroke-linecap="butt" d="m502.97375 285.39618c4.3975525 -1.5297241 11.258667 -4.7194824 11.456665 -4.2572327c2.5002441 5.836029 -2.8986206 13.3845215 -7.8556213 17.351715" fill-rule="evenodd"/><path fill="#000000" fill-opacity="0.0" d="m503.95538 287.3596c5.0488586 3.1567993 8.25293 8.832489 13.422546 11.787384" fill-rule="evenodd"/><path stroke="#000000" stroke-width="1.0" stroke-linejoin="round" stroke-linecap="butt" d="m503.95538 287.3596c5.0488586 3.1567993 8.25293 8.832489 13.422546 11.787384" fill-rule="evenodd"/><path fill="#000000" fill-opacity="0.0" d="m470.56168 243.48819c7.955963 -22.894318 14.3237915 -46.8927 27.173218 -67.44357c6.056946 -9.68721 12.262634 -23.262527 23.572174 -24.881882" fill-rule="evenodd"/><path stroke="#000000" stroke-width="1.0" stroke-linejoin="round" stroke-linecap="butt" d="m470.56168 243.48819c7.955963 -22.894318 14.3237915 -46.8927 27.173218 -67.44357c6.056946 -9.68721 12.262634 -23.262527 23.572174 -24.881882" fill-rule="evenodd"/><path fill="#000000" fill-opacity="0.0" d="m477.10663 244.46982c-2.6016846 -11.276337 8.140015 -21.668396 12.4409485 -32.41208c8.292938 -20.715775 11.794922 -48.960648 31.758514 -58.929123" fill-rule="evenodd"/><path stroke="#000000" stroke-width="1.0" stroke-linejoin="round" stroke-linecap="butt" d="m477.10663 244.46982c-2.6016846 -11.276337 8.140015 -21.668396 12.4409485 -32.41208c8.292938 -20.715775 11.794922 -48.960648 31.758514 -58.929123" fill-rule="evenodd"/><path fill="#000000" fill-opacity="0.0" d="m487.74802 224.87665c3.4351501 6.1019745 18.03955 9.8524475 20.7323 3.388443c2.6777344 -6.4279175 -8.658783 -11.710068 -15.039368 -14.498688" fill-rule="evenodd"/><path stroke="#000000" stroke-width="1.0" stroke-linejoin="round" stroke-linecap="butt" d="m487.74802 224.87665c3.4351501 6.1019745 18.03955 9.8524475 20.7323 3.388443c2.6777344 -6.4279175 -8.658783 -11.710068 -15.039368 -14.498688" fill-rule="evenodd"/><path fill="#000000" fill-opacity="0.0" d="m497.63953 199.4042c-1.1915283 4.5306396 9.316345 1.9253693 13.412079 4.199463c2.5193176 1.398819 1.35849 7.566269 -1.3543091 8.538071" fill-rule="evenodd"/><path stroke="#000000" stroke-width="1.0" stroke-linejoin="round" stroke-linecap="butt" d="m497.63953 199.4042c-1.1915283 4.5306396 9.316345 1.9253693 13.412079 4.199463c2.5193176 1.398819 1.35849 7.566269 -1.3543091 8.538071" fill-rule="evenodd"/><path fill="#000000" fill-opacity="0.0" d="m501.02625 189.24118c6.6960144 3.3526459 19.91925 13.680298 21.543335 6.3700714c0.8115845 -3.653244 -7.248352 -1.9506683 -10.70343 -3.388443c-2.6271057 -1.093216 1.6882935 -6.3498993 -0.13388062 -8.535431c-2.469696 -2.9622192 -8.371124 0.81503296 -10.976349 3.658783" fill-rule="evenodd"/><path stroke="#000000" stroke-width="1.0" stroke-linejoin="round" stroke-linecap="butt" d="m501.02625 189.24118c6.6960144 3.3526459 19.91925 13.680298 21.543335 6.3700714c0.8115845 -3.653244 -7.248352 -1.9506683 -10.70343 -3.388443c-2.6271057 -1.093216 1.6882935 -6.3498993 -0.13388062 -8.535431c-2.469696 -2.9622192 -8.371124 0.81503296 -10.976349 3.658783" fill-rule="evenodd"/><path fill="#000000" fill-opacity="0.0" d="m440.4672 166.89502c6.351898 13.20253 17.84842 24.28276 30.530182 31.619415" fill-rule="evenodd"/><path stroke="#000000" stroke-width="1.0" stroke-linejoin="round" stroke-linecap="butt" d="m440.4672 166.89502c6.351898 13.20253 17.84842 24.28276 30.530182 31.619415" fill-rule="evenodd"/><path fill="#000000" fill-opacity="0.0" d="m471.67978 198.1076c-0.6163025 -3.8163147 -2.6538086 -7.2618713 -3.9527588 -10.902878" fill-rule="evenodd"/><path stroke="#000000" stroke-width="1.0" stroke-linejoin="round" stroke-linecap="butt" d="m471.67978 198.1076c-0.6163025 -3.8163147 -2.6538086 -7.2618713 -3.9527588 -10.902878" fill-rule="evenodd"/><path fill="#000000" fill-opacity="0.0" d="m471.27036 197.69817c-3.76651 1.2528076 -7.966156 0.30981445 -11.858276 1.0892334" fill-rule="evenodd"/><path stroke="#000000" stroke-width="1.0" stroke-linejoin="round" stroke-linecap="butt" d="m471.27036 197.69817c-3.76651 1.2528076 -7.966156 0.30981445 -11.858276 1.0892334" fill-rule="evenodd"/><path fill="#000000" fill-opacity="0.0" d="m458.04987 170.71129c1.0040283 -1.1716461 2.0427856 -2.3157654 3.13385 -3.4068298" fill-rule="evenodd"/><path stroke="#000000" stroke-width="1.0" stroke-linejoin="round" stroke-linecap="butt" d="m458.04987 170.71129c1.0040283 -1.1716461 2.0427856 -2.3157654 3.13385 -3.4068298" fill-rule="evenodd"/><path fill="#000000" fill-opacity="0.0" d="m457.6404 166.48819c1.9844055 2.9785156 7.834137 10.680054 4.362213 9.81102" fill-rule="evenodd"/><path stroke="#000000" stroke-width="1.0" stroke-linejoin="round" stroke-linecap="butt" d="m457.6404 166.48819c1.9844055 2.9785156 7.834137 10.680054 4.362213 9.81102" fill-rule="evenodd"/><path fill="#000000" fill-opacity="0.0" d="m459.68503 175.20998c0.7877197 -2.1017303 1.6036072 -4.193222 2.454071 -6.27034" fill-rule="evenodd"/><path stroke="#000000" stroke-width="1.0" stroke-linejoin="round" stroke-linecap="butt" d="m459.68503 175.20998c0.7877197 -2.1017303 1.6036072 -4.193222 2.454071 -6.27034" fill-rule="evenodd"/><path fill="#000000" fill-opacity="0.0" d="m461.18372 162.8084c0.74935913 0.68110657 0.74935913 0.68110657 1.4986877 1.3622131" fill-rule="evenodd"/><path stroke="#000000" stroke-width="1.0" stroke-linejoin="round" stroke-linecap="butt" d="m461.18372 162.8084c0.74935913 0.68110657 0.74935913 0.68110657 1.4986877 1.3622131" fill-rule="evenodd"/><path fill="#000000" fill-opacity="0.0" d="m461.86615 165.25984c0.5446167 1.0223083 0.5446167 1.0223083 1.0892334 2.0446167" fill-rule="evenodd"/><path stroke="#000000" stroke-width="1.0" stroke-linejoin="round" stroke-linecap="butt" d="m461.86615 165.25984c0.5446167 1.0223083 0.5446167 1.0223083 1.0892334 2.0446167" fill-rule="evenodd"/><path fill="#000000" fill-opacity="0.0" d="m462.41208 164.85263c1.2931824 -1.5233765 5.6492615 -1.9681549 5.994751 0" fill-rule="evenodd"/><path stroke="#000000" stroke-width="1.0" stroke-linejoin="round" stroke-linecap="butt" d="m462.41208 164.85263c1.2931824 -1.5233765 5.6492615 -1.9681549 5.994751 0" fill-rule="evenodd"/><path fill="#000000" fill-opacity="0.0" d="m466.09186 165.39633c-1.4654236 1.3675995 -2.5420227 3.1781921 -3.2729492 5.0446167" fill-rule="evenodd"/><path stroke="#000000" stroke-width="1.0" stroke-linejoin="round" stroke-linecap="butt" d="m466.09186 165.39633c-1.4654236 1.3675995 -2.5420227 3.1781921 -3.2729492 5.0446167" fill-rule="evenodd"/><path fill="#000000" fill-opacity="0.0" d="m467.3176 166.21523c1.2952576 0.40812683 1.2952576 0.40812683 2.5905457 0.8162689" fill-rule="evenodd"/><path stroke="#000000" stroke-width="1.0" stroke-linejoin="round" stroke-linecap="butt" d="m467.3176 166.21523c1.2952576 0.40812683 1.2952576 0.40812683 2.5905457 0.8162689" fill-rule="evenodd"/><path fill="#000000" fill-opacity="0.0" d="m466.4987 170.57742c0.47769165 -1.158783 0.47769165 -1.158783 0.9553833 -2.3175812" fill-rule="evenodd"/><path stroke="#000000" stroke-width="1.0" stroke-linejoin="round" stroke-linecap="butt" d="m466.4987 170.57742c0.47769165 -1.158783 0.47769165 -1.158783 0.9553833 -2.3175812" fill-rule="evenodd"/><path fill="#000000" fill-opacity="0.0" d="m467.45407 169.07611c0.40707397 2.033371 1.6102905 3.9099274 2.9973755 5.4514465" fill-rule="evenodd"/><path stroke="#000000" stroke-width="1.0" stroke-linejoin="round" stroke-linecap="butt" d="m467.45407 169.07611c0.40707397 2.033371 1.6102905 3.9099274 2.9973755 5.4514465" fill-rule="evenodd"/><path fill="#000000" fill-opacity="0.0" d="m467.04462 176.84514c2.1744995 -1.4721527 4.3505554 -2.9773712 6.270355 -4.7690277" fill-rule="evenodd"/><path stroke="#000000" stroke-width="1.0" stroke-linejoin="round" stroke-linecap="butt" d="m467.04462 176.84514c2.1744995 -1.4721527 4.3505554 -2.9773712 6.270355 -4.7690277" fill-rule="evenodd"/><path fill="#000000" fill-opacity="0.0" d="m469.3622 157.29659c1.0223083 3.3399048 1.0223083 3.3399048 2.0446167 6.6797943" fill-rule="evenodd"/><path stroke="#000000" stroke-width="1.0" stroke-linejoin="round" stroke-linecap="butt" d="m469.3622 157.29659c1.0223083 3.3399048 1.0223083 3.3399048 2.0446167 6.6797943" fill-rule="evenodd"/><path fill="#000000" fill-opacity="0.0" d="m470.042 159.06824c1.8399048 -1.7716522 1.8399048 -1.7716522 3.679779 -3.5433044" fill-rule="evenodd"/><path stroke="#000000" stroke-width="1.0" stroke-linejoin="round" stroke-linecap="butt" d="m470.042 159.06824c1.8399048 -1.7716522 1.8399048 -1.7716522 3.679779 -3.5433044" fill-rule="evenodd"/><path fill="#000000" fill-opacity="0.0" d="m471.95013 160.97638c0.68240356 -1.4304504 0.68240356 -1.4304504 1.3648376 -2.8609009" fill-rule="evenodd"/><path stroke="#000000" stroke-width="1.0" stroke-linejoin="round" stroke-linecap="butt" d="m471.95013 160.97638c0.68240356 -1.4304504 0.68240356 -1.4304504 1.3648376 -2.8609009" fill-rule="evenodd"/><path fill="#000000" fill-opacity="0.0" d="m471.81628 154.98163c1.4387512 3.8954315 3.965271 7.3105164 6.2677 10.766403" fill-rule="evenodd"/><path stroke="#000000" stroke-width="1.0" stroke-linejoin="round" stroke-linecap="butt" d="m471.81628 154.98163c1.4387512 3.8954315 3.965271 7.3105164 6.2677 10.766403" fill-rule="evenodd"/><path fill="#000000" fill-opacity="0.0" d="m475.6299 156.75328c1.2044678 0.96325684 2.3466492 2.0372314 3.2729797 3.27034" fill-rule="evenodd"/><path stroke="#000000" stroke-width="1.0" stroke-linejoin="round" stroke-linecap="butt" d="m475.6299 156.75328c1.2044678 0.96325684 2.3466492 2.0372314 3.2729797 3.27034" fill-rule="evenodd"/><path fill="#000000" fill-opacity="0.0" d="m476.72177 150.61942c2.3061218 4.8114624 9.585907 16.475845 4.3595886 15.401581" fill-rule="evenodd"/><path stroke="#000000" stroke-width="1.0" stroke-linejoin="round" stroke-linecap="butt" d="m476.72177 150.61942c2.3061218 4.8114624 9.585907 16.475845 4.3595886 15.401581" fill-rule="evenodd"/><path fill="#000000" fill-opacity="0.0" d="m473.85828 160.16011c-0.104644775 1.984314 -0.5338745 3.953003 -1.0892334 5.8608856" fill-rule="evenodd"/><path stroke="#000000" stroke-width="1.0" stroke-linejoin="round" stroke-linecap="butt" d="m473.85828 160.16011c-0.104644775 1.984314 -0.5338745 3.953003 -1.0892334 5.8608856" fill-rule="evenodd"/><path fill="#000000" fill-opacity="0.0" d="m473.99475 160.02362c1.8399048 1.1587982 1.8399048 1.1587982 3.679779 2.3175812" fill-rule="evenodd"/><path stroke="#000000" stroke-width="1.0" stroke-linejoin="round" stroke-linecap="butt" d="m473.99475 160.02362c1.8399048 1.1587982 1.8399048 1.1587982 3.679779 2.3175812" fill-rule="evenodd"/><path fill="#000000" fill-opacity="0.0" d="m256.90363 310.67535c-12.880325 19.337463 -5.633438 47.1622 0 69.7034c1.3272095 5.3105774 -2.909195 10.563904 -3.9816284 15.931763c-0.9666748 4.83844 3.781952 9.152985 4.979004 13.939636c3.0770264 12.304016 -2.5428467 26.963867 3.9816284 37.839874c3.025879 5.0440674 11.161377 3.8251648 16.929138 4.979004c19.864014 3.9738464 40.60623 0.24301147 60.740143 -1.9921265c11.990326 -1.3310852 23.814423 -4.12027 35.84778 -4.979004c8.938782 -0.6378784 19.199738 4.610077 26.884521 0c6.0042725 -3.6019287 1.9921265 -13.908936 1.9921265 -20.910736c0 -18.402771 -0.51013184 -37.535126 -6.9711304 -54.76642c-2.7991943 -7.465271 0.9973755 -15.924835 0.9973755 -23.897644c0 -8.075836 -5.427582 -15.951813 -3.984253 -23.897644c1.0154724 -5.5904846 6.8645935 -14.006134 1.9921265 -16.929108c-17.163055 -10.2960205 -39.730988 -5.973755 -59.745422 -5.973755c-25.11444 0 -52.22528 -1.2853699 -74.6824 9.958008" fill-rule="evenodd"/><path stroke="#000000" stroke-width="1.0" stroke-linejoin="round" stroke-linecap="butt" d="m256.90363 310.67535c-12.880325 19.337463 -5.633438 47.1622 0 69.7034c1.3272095 5.3105774 -2.909195 10.563904 -3.9816284 15.931763c-0.9666748 4.83844 3.781952 9.152985 4.979004 13.939636c3.0770264 12.304016 -2.5428467 26.963867 3.9816284 37.839874c3.025879 5.0440674 11.161377 3.8251648 16.929138 4.979004c19.864014 3.9738464 40.60623 0.24301147 60.740143 -1.9921265c11.990326 -1.3310852 23.814423 -4.12027 35.84778 -4.979004c8.938782 -0.6378784 19.199738 4.610077 26.884521 0c6.0042725 -3.6019287 1.9921265 -13.908936 1.9921265 -20.910736c0 -18.402771 -0.51013184 -37.535126 -6.9711304 -54.76642c-2.7991943 -7.465271 0.9973755 -15.924835 0.9973755 -23.897644c0 -8.075836 -5.427582 -15.951813 -3.984253 -23.897644c1.0154724 -5.5904846 6.8645935 -14.006134 1.9921265 -16.929108c-17.163055 -10.2960205 -39.730988 -5.973755 -59.745422 -5.973755c-25.11444 0 -52.22528 -1.2853699 -74.6824 9.958008" fill-rule="evenodd"/><path fill="#000000" fill-opacity="0.0" d="m252.92126 326.6063c46.21283 0 92.196625 -7.9658813 138.40945 -7.9658813" fill-rule="evenodd"/><path stroke="#000000" stroke-width="1.0" stroke-linejoin="round" stroke-linecap="butt" d="m252.92126 326.6063c46.21283 0 92.196625 -7.9658813 138.40945 -7.9658813" fill-rule="evenodd"/><path fill="#000000" fill-opacity="0.0" d="m364.83203 305.23358c2.2954102 2.8269653 3.8204346 7.979004 7.4619446 7.979004c1.3567505 0 3.5560303 0.033355713 3.8608704 -1.2886963c1.0184021 -4.4164734 -7.304901 -6.6903076 -11.83725 -6.6903076" fill-rule="evenodd"/><path stroke="#000000" stroke-width="1.0" stroke-linejoin="round" stroke-linecap="butt" d="m364.83203 305.23358c2.2954102 2.8269653 3.8204346 7.979004 7.4619446 7.979004c1.3567505 0 3.5560303 0.033355713 3.8608704 -1.2886963c1.0184021 -4.4164734 -7.304901 -6.6903076 -11.83725 -6.6903076" fill-rule="evenodd"/><path fill="#000000" fill-opacity="0.0" d="m379.75854 306.00525c2.5711365 2.2497559 6.775818 3.2355042 7.9789734 6.433075" fill-rule="evenodd"/><path stroke="#000000" stroke-width="1.0" stroke-linejoin="round" stroke-linecap="butt" d="m379.75854 306.00525c2.5711365 2.2497559 6.775818 3.2355042 7.9789734 6.433075" fill-rule="evenodd"/><path fill="#000000" fill-opacity="0.0" d="m383.87665 306.00525c-0.43829346 2.1936646 -2.1715698 3.9429016 -3.6036682 5.6614075" fill-rule="evenodd"/><path stroke="#000000" stroke-width="1.0" stroke-linejoin="round" stroke-linecap="butt" d="m383.87665 306.00525c-0.43829346 2.1936646 -2.1715698 3.9429016 -3.6036682 5.6614075" fill-rule="evenodd"/><path fill="#000000" fill-opacity="0.0" d="m351.96326 313.46982c2.6721497 0 5.3278503 -0.4399414 7.979004 -0.774292" fill-rule="evenodd"/><path stroke="#000000" stroke-width="1.0" stroke-linejoin="round" stroke-linecap="butt" d="m351.96326 313.46982c2.6721497 0 5.3278503 -0.4399414 7.979004 -0.774292" fill-rule="evenodd"/><path fill="#000000" fill-opacity="0.0" d="m279.64264 373.6929c-0.40170288 10.046722 0.5560303 20.133179 1.8031616 30.11026" fill-rule="evenodd"/><path stroke="#000000" stroke-width="1.0" stroke-linejoin="round" stroke-linecap="butt" d="m279.64264 373.6929c-0.40170288 10.046722 0.5560303 20.133179 1.8031616 30.11026" fill-rule="evenodd"/><path fill="#000000" fill-opacity="0.0" d="m281.96063 374.7223c5.903137 -3.690857 13.509857 -11.841949 19.30185 -7.979004c5.1944275 3.464447 3.409546 12.06955 4.118103 18.27298c0.6292114 5.5089417 6.750763 13.145569 2.3149414 16.472443c-3.6956787 2.771759 -8.693756 -3.822235 -11.83725 -7.207367" fill-rule="evenodd"/><path stroke="#000000" stroke-width="1.0" stroke-linejoin="round" stroke-linecap="butt" d="m281.96063 374.7223c5.903137 -3.690857 13.509857 -11.841949 19.30185 -7.979004c5.1944275 3.464447 3.409546 12.06955 4.118103 18.27298c0.6292114 5.5089417 6.750763 13.145569 2.3149414 16.472443c-3.6956787 2.771759 -8.693756 -3.822235 -11.83725 -7.207367" fill-rule="evenodd"/><path fill="#000000" fill-opacity="0.0" d="m286.07874 380.3832c2.4962769 5.117279 5.0011597 10.3845215 8.750671 14.669281" fill-rule="evenodd"/><path stroke="#000000" stroke-width="1.0" stroke-linejoin="round" stroke-linecap="butt" d="m286.07874 380.3832c2.4962769 5.117279 5.0011597 10.3845215 8.750671 14.669281" fill-rule="evenodd"/><path fill="#000000" fill-opacity="0.0" d="m288.90814 379.35434c-0.21774292 5.2281494 -1.3258057 10.428925 -2.8294067 15.4409485" fill-rule="evenodd"/><path stroke="#000000" stroke-width="1.0" stroke-linejoin="round" stroke-linecap="butt" d="m288.90814 379.35434c-0.21774292 5.2281494 -1.3258057 10.428925 -2.8294067 15.4409485" fill-rule="evenodd"/><path fill="#000000" fill-opacity="0.0" d="m293.7979 380.12598c2.383728 4.582428 4.351349 9.721771 8.236206 13.126007" fill-rule="evenodd"/><path stroke="#000000" stroke-width="1.0" stroke-linejoin="round" stroke-linecap="butt" d="m293.7979 380.12598c2.383728 4.582428 4.351349 9.721771 8.236206 13.126007" fill-rule="evenodd"/><path fill="#000000" fill-opacity="0.0" d="m297.14435 381.15485c-0.730072 3.5073242 -1.6515503 7.0126038 -3.0892334 10.293976" fill-rule="evenodd"/><path stroke="#000000" stroke-width="1.0" stroke-linejoin="round" stroke-linecap="butt" d="m297.14435 381.15485c-0.730072 3.5073242 -1.6515503 7.0126038 -3.0892334 10.293976" fill-rule="evenodd"/><path fill="#000000" fill-opacity="0.0" d="m319.021 373.4357c6.2170715 -3.108551 12.69162 -5.6730957 19.044617 -8.493439" fill-rule="evenodd"/><path stroke="#000000" stroke-width="1.0" stroke-linejoin="round" stroke-linecap="butt" d="m319.021 373.4357c6.2170715 -3.108551 12.69162 -5.6730957 19.044617 -8.493439" fill-rule="evenodd"/><path fill="#000000" fill-opacity="0.0" d="m332.14697 369.3176c-3.255951 3.0505066 -6.2424927 6.559662 -8.236206 10.551178" fill-rule="evenodd"/><path stroke="#000000" stroke-width="1.0" stroke-linejoin="round" stroke-linecap="butt" d="m332.14697 369.3176c-3.255951 3.0505066 -6.2424927 6.559662 -8.236206 10.551178" fill-rule="evenodd"/><path fill="#000000" fill-opacity="0.0" d="m323.39633 380.89764c0.77163696 4.8897705 0.77163696 4.8897705 1.5433044 9.7795105" fill-rule="evenodd"/><path stroke="#000000" stroke-width="1.0" stroke-linejoin="round" stroke-linecap="butt" d="m323.39633 380.89764c0.77163696 4.8897705 0.77163696 4.8897705 1.5433044 9.7795105" fill-rule="evenodd"/><path fill="#000000" fill-opacity="0.0" d="m324.16797 380.89877c4.543976 -2.8889465 11.620056 -10.425659 14.926514 -6.1758423c2.9358215 3.773407 -1.7875671 9.403046 -2.3149414 14.154846" fill-rule="evenodd"/><path stroke="#000000" stroke-width="1.0" stroke-linejoin="round" stroke-linecap="butt" d="m324.16797 380.89877c4.543976 -2.8889465 11.620056 -10.425659 14.926514 -6.1758423c2.9358215 3.773407 -1.7875671 9.403046 -2.3149414 14.154846" fill-rule="evenodd"/><path fill="#000000" fill-opacity="0.0" d="m332.4042 381.9265c-1.6553955 7.4440002 -4.278473 14.643097 -6.692932 21.876648" fill-rule="evenodd"/><path stroke="#000000" stroke-width="1.0" stroke-linejoin="round" stroke-linecap="butt" d="m332.4042 381.9265c-1.6553955 7.4440002 -4.278473 14.643097 -6.692932 21.876648" fill-rule="evenodd"/><path fill="#000000" fill-opacity="0.0" d="m332.91864 393.5092c3.4203186 4.1803894 8.322144 6.96463 11.83728 11.065613" fill-rule="evenodd"/><path stroke="#000000" stroke-width="1.0" stroke-linejoin="round" stroke-linecap="butt" d="m332.91864 393.5092c3.4203186 4.1803894 8.322144 6.96463 11.83728 11.065613" fill-rule="evenodd"/><path fill="#000000" fill-opacity="0.0" d="m481.41733 323.7638c-18.79007 23.732178 -44.982147 40.8136 -64.34122 64.083984" fill-rule="evenodd"/><path stroke="#000000" stroke-width="1.0" stroke-linejoin="round" stroke-linecap="butt" d="m481.41733 323.7638c-18.79007 23.732178 -44.982147 40.8136 -64.34122 64.083984" fill-rule="evenodd"/><path fill="#000000" fill-opacity="0.0" d="m416.56168 387.0735c1.6547546 -5.791046 4.7007446 -11.887299 3.346466 -17.75589" fill-rule="evenodd"/><path stroke="#000000" stroke-width="1.0" stroke-linejoin="round" stroke-linecap="butt" d="m416.56168 387.0735c1.6547546 -5.791046 4.7007446 -11.887299 3.346466 -17.75589" fill-rule="evenodd"/><path fill="#000000" fill-opacity="0.0" d="m416.8189 388.10425c6.096405 0 12.274689 -0.31793213 18.27295 0.77163696" fill-rule="evenodd"/><path stroke="#000000" stroke-width="1.0" stroke-linejoin="round" stroke-linecap="butt" d="m416.8189 388.10425c6.096405 0 12.274689 -0.31793213 18.27295 0.77163696" fill-rule="evenodd"/><path fill="#000000" fill-opacity="0.0" d="m436.8924 380.3832c3.2178345 1.287384 3.2178345 1.287384 6.4356995 2.5747986" fill-rule="evenodd"/><path stroke="#000000" stroke-width="1.0" stroke-linejoin="round" stroke-linecap="butt" d="m436.8924 380.3832c3.2178345 1.287384 3.2178345 1.287384 6.4356995 2.5747986" fill-rule="evenodd"/><path fill="#000000" fill-opacity="0.0" d="m436.37796 379.09723c2.5874634 -2.160614 8.7135315 -5.772766 9.7795105 -2.5747986" fill-rule="evenodd"/><path stroke="#000000" stroke-width="1.0" stroke-linejoin="round" stroke-linecap="butt" d="m436.37796 379.09723c2.5874634 -2.160614 8.7135315 -5.772766 9.7795105 -2.5747986" fill-rule="evenodd"/><path fill="#000000" fill-opacity="0.0" d="m441.0105 378.8399c1.6732178 -1.8018494 1.6732178 -1.8018494 3.346466 -3.6036987" fill-rule="evenodd"/><path stroke="#000000" stroke-width="1.0" stroke-linejoin="round" stroke-linecap="butt" d="m441.0105 378.8399c1.6732178 -1.8018494 1.6732178 -1.8018494 3.346466 -3.6036987" fill-rule="evenodd"/><path fill="#000000" fill-opacity="0.0" d="m443.3281 381.41208c1.1574707 -2.5734863 1.1574707 -2.5734863 2.3149414 -5.1469727" fill-rule="evenodd"/><path stroke="#000000" stroke-width="1.0" stroke-linejoin="round" stroke-linecap="butt" d="m443.3281 381.41208c1.1574707 -2.5734863 1.1574707 -2.5734863 2.3149414 -5.1469727" fill-rule="evenodd"/><path fill="#000000" fill-opacity="0.0" d="m442.03937 372.91864c1.3109741 3.8005981 10.537994 11.535278 9.265106 7.7217712" fill-rule="evenodd"/><path stroke="#000000" stroke-width="1.0" stroke-linejoin="round" stroke-linecap="butt" d="m442.03937 372.91864c1.3109741 3.8005981 10.537994 11.535278 9.265106 7.7217712" fill-rule="evenodd"/><path fill="#000000" fill-opacity="0.0" d="m446.4147 365.97113c1.1227112 2.0167847 3.168274 3.4439697 5.1469727 4.632538" fill-rule="evenodd"/><path stroke="#000000" stroke-width="1.0" stroke-linejoin="round" stroke-linecap="butt" d="m446.4147 365.97113c1.1227112 2.0167847 3.168274 3.4439697 5.1469727 4.632538" fill-rule="evenodd"/><path fill="#000000" fill-opacity="0.0" d="m447.96063 365.1992c0.14266968 -2.141327 5.3694763 -1.606781 6.433075 0.25720215" fill-rule="evenodd"/><path stroke="#000000" stroke-width="1.0" stroke-linejoin="round" stroke-linecap="butt" d="m447.96063 365.1992c0.14266968 -2.141327 5.3694763 -1.606781 6.433075 0.25720215" fill-rule="evenodd"/><path fill="#000000" fill-opacity="0.0" d="m450.79004 366.22833c0.64434814 -1.4159851 0.64434814 -1.4159851 1.2886963 -2.8320007" fill-rule="evenodd"/><path stroke="#000000" stroke-width="1.0" stroke-linejoin="round" stroke-linecap="butt" d="m450.79004 366.22833c0.64434814 -1.4159851 0.64434814 -1.4159851 1.2886963 -2.8320007" fill-rule="evenodd"/><path fill="#000000" fill-opacity="0.0" d="m448.21783 369.5748c1.471405 -1.2893372 3.0292969 -2.4825134 4.6325684 -3.6036682" fill-rule="evenodd"/><path stroke="#000000" stroke-width="1.0" stroke-linejoin="round" stroke-linecap="butt" d="m448.21783 369.5748c1.471405 -1.2893372 3.0292969 -2.4825134 4.6325684 -3.6036682" fill-rule="evenodd"/><path fill="#000000" fill-opacity="0.0" d="m451.8189 375.2362c1.7739563 -5.0842896 3.5068054 -10.251099 6.178467 -14.926483" fill-rule="evenodd"/><path stroke="#000000" stroke-width="1.0" stroke-linejoin="round" stroke-linecap="butt" d="m451.8189 375.2362c1.7739563 -5.0842896 3.5068054 -10.251099 6.178467 -14.926483" fill-rule="evenodd"/><path fill="#000000" fill-opacity="0.0" d="m453.1076 373.6929c0.90026855 0.5144348 0.90026855 0.5144348 1.8005371 1.0288696" fill-rule="evenodd"/><path stroke="#000000" stroke-width="1.0" stroke-linejoin="round" stroke-linecap="butt" d="m453.1076 373.6929c0.90026855 0.5144348 0.90026855 0.5144348 1.8005371 1.0288696" fill-rule="evenodd"/><path fill="#000000" fill-opacity="0.0" d="m453.62204 372.14807c2.0590515 -3.859558 1.3851929 -4.3034363 4.118103 -7.7191467c1.6155396 -2.0191345 1.5913696 6.6689453 -0.77163696 7.7191467" fill-rule="evenodd"/><path stroke="#000000" stroke-width="1.0" stroke-linejoin="round" stroke-linecap="butt" d="m453.62204 372.14807c2.0590515 -3.859558 1.3851929 -4.3034363 4.118103 -7.7191467c1.6155396 -2.0191345 1.5913696 6.6689453 -0.77163696 7.7191467" fill-rule="evenodd"/><path fill="#000000" fill-opacity="0.0" d="m454.3937 372.14697c0.25720215 -1.4147034 0.25720215 -1.4147034 0.5144348 -2.8293762" fill-rule="evenodd"/><path stroke="#000000" stroke-width="1.0" stroke-linejoin="round" stroke-linecap="butt" d="m454.3937 372.14697c0.25720215 -1.4147034 0.25720215 -1.4147034 0.5144348 -2.8293762" fill-rule="evenodd"/><path fill="#000000" fill-opacity="0.0" d="m455.42258 374.72177c0.25720215 -1.5446167 0.25720215 -1.5446167 0.5144348 -3.0892334" fill-rule="evenodd"/><path stroke="#000000" stroke-width="1.0" stroke-linejoin="round" stroke-linecap="butt" d="m455.42258 374.72177c0.25720215 -1.5446167 0.25720215 -1.5446167 0.5144348 -3.0892334" fill-rule="evenodd"/><path fill="#000000" fill-opacity="0.0" d="m454.6509 376.2651c1.5446167 -2.3162842 1.5446167 -2.3162842 3.0892334 -4.6325684" fill-rule="evenodd"/><path stroke="#000000" stroke-width="1.0" stroke-linejoin="round" stroke-linecap="butt" d="m454.6509 376.2651c1.5446167 -2.3162842 1.5446167 -2.3162842 3.0892334 -4.6325684" fill-rule="evenodd"/><path fill="#000000" fill-opacity="0.0" d="m454.13647 368.5433c3.473755 3.8609009 3.473755 3.8609009 6.94751 7.7218018" fill-rule="evenodd"/><path stroke="#000000" stroke-width="1.0" stroke-linejoin="round" stroke-linecap="butt" d="m454.13647 368.5433c3.473755 3.8609009 3.473755 3.8609009 6.94751 7.7218018" fill-rule="evenodd"/><path fill="#000000" fill-opacity="0.0" d="m460.82678 374.72177c0.5157471 -0.9015503 0.5157471 -0.9015503 1.0314941 -1.8031311" fill-rule="evenodd"/><path stroke="#000000" stroke-width="1.0" stroke-linejoin="round" stroke-linecap="butt" d="m460.82678 374.72177c0.5157471 -0.9015503 0.5157471 -0.9015503 1.0314941 -1.8031311" fill-rule="evenodd"/><path fill="#000000" fill-opacity="0.0" d="m455.67978 379.0971c2.808014 -1.7563171 5.86084 -3.375122 7.979004 -5.9212646" fill-rule="evenodd"/><path stroke="#000000" stroke-width="1.0" stroke-linejoin="round" stroke-linecap="butt" d="m455.67978 379.0971c2.808014 -1.7563171 5.86084 -3.375122 7.979004 -5.9212646" fill-rule="evenodd"/><path fill="#000000" fill-opacity="0.0" d="m462.88715 352.0735c0.6430359 2.0590515 0.6430359 2.0590515 1.2860718 4.118103" fill-rule="evenodd"/><path stroke="#000000" stroke-width="1.0" stroke-linejoin="round" stroke-linecap="butt" d="m462.88715 352.0735c0.6430359 2.0590515 0.6430359 2.0590515 1.2860718 4.118103" fill-rule="evenodd"/><path fill="#000000" fill-opacity="0.0" d="m463.65878 358.24933c2.1853943 4.0102844 5.4434204 7.63855 6.433075 12.097137" fill-rule="evenodd"/><path stroke="#000000" stroke-width="1.0" stroke-linejoin="round" stroke-linecap="butt" d="m463.65878 358.24933c2.1853943 4.0102844 5.4434204 7.63855 6.433075 12.097137" fill-rule="evenodd"/><path fill="#000000" fill-opacity="0.0" d="m463.91602 359.28085c2.2615967 -1.4638977 4.5293274 -2.9862366 6.433075 -4.892395" fill-rule="evenodd"/><path stroke="#000000" stroke-width="1.0" stroke-linejoin="round" stroke-linecap="butt" d="m463.91602 359.28085c2.2615967 -1.4638977 4.5293274 -2.9862366 6.433075 -4.892395" fill-rule="evenodd"/><path fill="#000000" fill-opacity="0.0" d="m471.89502 354.13123c0 4.29303 0.1722107 8.5894165 0.5144348 12.868774" fill-rule="evenodd"/><path stroke="#000000" stroke-width="1.0" stroke-linejoin="round" stroke-linecap="butt" d="m471.89502 354.13123c0 4.29303 0.1722107 8.5894165 0.5144348 12.868774" fill-rule="evenodd"/><path fill="#000000" fill-opacity="0.0" d="m466.23358 359.28085c4.466339 0.49624634 8.690704 2.3478088 13.123383 3.086609" fill-rule="evenodd"/><path stroke="#000000" stroke-width="1.0" stroke-linejoin="round" stroke-linecap="butt" d="m466.23358 359.28085c4.466339 0.49624634 8.690704 2.3478088 13.123383 3.086609" fill-rule="evenodd"/><path fill="#000000" fill-opacity="0.0" d="m471.89502 341.00787c1.2262878 3.6802673 1.8652954 7.5977173 3.6036682 11.065613" fill-rule="evenodd"/><path stroke="#000000" stroke-width="1.0" stroke-linejoin="round" stroke-linecap="butt" d="m471.89502 341.00787c1.2262878 3.6802673 1.8652954 7.5977173 3.6036682 11.065613" fill-rule="evenodd"/><path fill="#000000" fill-opacity="0.0" d="m473.4383 348.4689c3.7466736 -11.246368 -3.0707397 -2.0050964 1.0288696 -7.4619446c1.7861938 -2.3775635 4.8897705 4.4881897 4.8897705 7.4619446" fill-rule="evenodd"/><path stroke="#000000" stroke-width="1.0" stroke-linejoin="round" stroke-linecap="butt" d="m473.4383 348.4689c3.7466736 -11.246368 -3.0707397 -2.0050964 1.0288696 -7.4619446c1.7861938 -2.3775635 4.8897705 4.4881897 4.8897705 7.4619446" fill-rule="evenodd"/><path fill="#000000" fill-opacity="0.0" d="m478.32767 346.41208c-0.14865112 2.528656 3.245697 9.1979065 3.6036682 6.690277" fill-rule="evenodd"/><path stroke="#000000" stroke-width="1.0" stroke-linejoin="round" stroke-linecap="butt" d="m478.32767 346.41208c-0.14865112 2.528656 3.245697 9.1979065 3.6036682 6.690277" fill-rule="evenodd"/><path fill="#000000" fill-opacity="0.0" d="m479.09973 337.6614c0.5157471 1.0288696 0.5157471 1.0288696 1.0314941 2.0577393" fill-rule="evenodd"/><path stroke="#000000" stroke-width="1.0" stroke-linejoin="round" stroke-linecap="butt" d="m479.09973 337.6614c0.5157471 1.0288696 0.5157471 1.0288696 1.0314941 2.0577393" fill-rule="evenodd"/><path fill="#000000" fill-opacity="0.0" d="m478.5853 338.43317c1.0047302 -1.403717 3.8613281 -3.8593445 4.632538 -2.3149414" fill-rule="evenodd"/><path stroke="#000000" stroke-width="1.0" stroke-linejoin="round" stroke-linecap="butt" d="m478.5853 338.43317c1.0047302 -1.403717 3.8613281 -3.8593445 4.632538 -2.3149414" fill-rule="evenodd"/><path fill="#000000" fill-opacity="0.0" d="m480.9029 339.97638c0.90026855 -1.6719055 0.90026855 -1.6719055 1.8005066 -3.3438416" fill-rule="evenodd"/><path stroke="#000000" stroke-width="1.0" stroke-linejoin="round" stroke-linecap="butt" d="m480.9029 339.97638c0.90026855 -1.6719055 0.90026855 -1.6719055 1.8005066 -3.3438416" fill-rule="evenodd"/><path fill="#000000" fill-opacity="0.0" d="m481.1601 346.15485c2.353424 -4.280243 4.4631042 -8.75589 7.4619446 -12.611542" fill-rule="evenodd"/><path stroke="#000000" stroke-width="1.0" stroke-linejoin="round" stroke-linecap="butt" d="m481.1601 346.15485c2.353424 -4.280243 4.4631042 -8.75589 7.4619446 -12.611542" fill-rule="evenodd"/><path fill="#000000" fill-opacity="0.0" d="m477.29922 333.02887c2.1677246 1.6860352 3.714569 4.0899963 5.1469727 6.433075" fill-rule="evenodd"/><path stroke="#000000" stroke-width="1.0" stroke-linejoin="round" stroke-linecap="butt" d="m477.29922 333.02887c2.1677246 1.6860352 3.714569 4.0899963 5.1469727 6.433075" fill-rule="evenodd"/><path fill="#000000" fill-opacity="0.0" d="m482.4462 344.3517c2.0590515 1.287384 2.0590515 1.287384 4.118103 2.5747986" fill-rule="evenodd"/><path stroke="#000000" stroke-width="1.0" stroke-linejoin="round" stroke-linecap="butt" d="m482.4462 344.3517c2.0590515 1.287384 2.0590515 1.287384 4.118103 2.5747986" fill-rule="evenodd"/><path fill="#000000" fill-opacity="0.0" d="m482.4462 344.09326c1.0882568 -1.7661438 4.4773865 -4.942566 5.4042053 -3.086609" fill-rule="evenodd"/><path stroke="#000000" stroke-width="1.0" stroke-linejoin="round" stroke-linecap="butt" d="m482.4462 344.09326c1.0882568 -1.7661438 4.4773865 -4.942566 5.4042053 -3.086609" fill-rule="evenodd"/><path fill="#000000" fill-opacity="0.0" d="m482.96063 341.77954c2.716278 2.324829 3.893097 6.0247803 5.4042053 9.265076" fill-rule="evenodd"/><path stroke="#000000" stroke-width="1.0" stroke-linejoin="round" stroke-linecap="butt" d="m482.96063 341.77954c2.716278 2.324829 3.893097 6.0247803 5.4042053 9.265076" fill-rule="evenodd"/><path fill="#000000" fill-opacity="0.0" d="m489.39633 344.60892c3.0879211 0.25723267 3.0879211 0.25723267 6.1758423 0.5144348" fill-rule="evenodd"/><path stroke="#000000" stroke-width="1.0" stroke-linejoin="round" stroke-linecap="butt" d="m489.39633 344.60892c3.0879211 0.25723267 3.0879211 0.25723267 6.1758423 0.5144348" fill-rule="evenodd"/><path fill="#000000" fill-opacity="0.0" d="m231.59055 428.95276c1.8018494 -1.9304504 1.8018494 -1.9304504 3.6036835 -3.8609009" fill-rule="evenodd"/><path stroke="#000000" stroke-width="1.0" stroke-linejoin="round" stroke-linecap="butt" d="m231.59055 428.95276c1.8018494 -1.9304504 1.8018494 -1.9304504 3.6036835 -3.8609009" fill-rule="evenodd"/><path fill="#000000" fill-opacity="0.0" d="m240.08398 427.66403c2.1876678 -1.5433044 2.1876678 -1.5433044 4.3753357 -3.086609" fill-rule="evenodd"/><path stroke="#000000" stroke-width="1.0" stroke-linejoin="round" stroke-linecap="butt" d="m240.08398 427.66403c2.1876678 -1.5433044 2.1876678 -1.5433044 4.3753357 -3.086609" fill-rule="evenodd"/><path fill="#000000" fill-opacity="0.0" d="m251.66405 427.66403c-4.1752777 -3.0013428 -8.519424 -6.7395935 -13.640427 -7.204712" fill-rule="evenodd"/><path stroke="#000000" stroke-width="1.0" stroke-linejoin="round" stroke-linecap="butt" d="m251.66405 427.66403c-4.1752777 -3.0013428 -8.519424 -6.7395935 -13.640427 -7.204712" fill-rule="evenodd"/><path fill="#000000" fill-opacity="0.0" d="m230.04724 418.65616c2.316269 -1.1574707 2.316269 -1.1574707 4.632553 -2.3149414" fill-rule="evenodd"/><path stroke="#000000" stroke-width="1.0" stroke-linejoin="round" stroke-linecap="butt" d="m230.04724 418.65616c2.316269 -1.1574707 2.316269 -1.1574707 4.632553 -2.3149414" fill-rule="evenodd"/><path fill="#000000" fill-opacity="0.0" d="m236.22397 420.458c-1.3015137 -3.092743 6.8545685 -1.835968 10.036743 -0.77163696" fill-rule="evenodd"/><path stroke="#000000" stroke-width="1.0" stroke-linejoin="round" stroke-linecap="butt" d="m236.22397 420.458c-1.3015137 -3.092743 6.8545685 -1.835968 10.036743 -0.77163696" fill-rule="evenodd"/><path fill="#000000" fill-opacity="0.0" d="m243.43045 420.97375c0 -2.093872 2.011261 -3.7843018 3.6010437 -5.1469727" fill-rule="evenodd"/><path stroke="#000000" stroke-width="1.0" stroke-linejoin="round" stroke-linecap="butt" d="m243.43045 420.97375c0 -2.093872 2.011261 -3.7843018 3.6010437 -5.1469727" fill-rule="evenodd"/><path fill="#000000" fill-opacity="0.0" d="m235.19423 414.53806c3.0883484 -0.25735474 6.176712 -0.51449585 9.265091 -0.77163696" fill-rule="evenodd"/><path stroke="#000000" stroke-width="1.0" stroke-linejoin="round" stroke-linecap="butt" d="m235.19423 414.53806c3.0883484 -0.25735474 6.176712 -0.51449585 9.265091 -0.77163696" fill-rule="evenodd"/><path fill="#000000" fill-opacity="0.0" d="m228.75853 412.73752c6.8640594 0 13.726501 -0.25720215 20.590546 -0.25720215" fill-rule="evenodd"/><path stroke="#000000" stroke-width="1.0" stroke-linejoin="round" stroke-linecap="butt" d="m228.75853 412.73752c6.8640594 0 13.726501 -0.25720215 20.590546 -0.25720215" fill-rule="evenodd"/><path fill="#000000" fill-opacity="0.0" d="m226.70079 402.44357c5.0183716 0.5144348 5.0183716 0.5144348 10.036743 1.0288696" fill-rule="evenodd"/><path stroke="#000000" stroke-width="1.0" stroke-linejoin="round" stroke-linecap="butt" d="m226.70079 402.44357c5.0183716 0.5144348 5.0183716 0.5144348 10.036743 1.0288696" fill-rule="evenodd"/><path fill="#000000" fill-opacity="0.0" d="m227.72966 399.35434c3.7683868 0.3423462 7.5415497 0.77163696 11.325455 0.77163696" fill-rule="evenodd"/><path stroke="#000000" stroke-width="1.0" stroke-linejoin="round" stroke-linecap="butt" d="m227.72966 399.35434c3.7683868 0.3423462 7.5415497 0.77163696 11.325455 0.77163696" fill-rule="evenodd"/><path fill="#000000" fill-opacity="0.0" d="m225.92914 394.72177c4.8210297 1.0709534 9.641098 2.3714905 14.154846 4.3753357" fill-rule="evenodd"/><path stroke="#000000" stroke-width="1.0" stroke-linejoin="round" stroke-linecap="butt" d="m225.92914 394.72177c4.8210297 1.0709534 9.641098 2.3714905 14.154846 4.3753357" fill-rule="evenodd"/><path fill="#000000" fill-opacity="0.0" d="m233.6483 394.72177c0.64434814 -2.4448547 0.64434814 -2.4448547 1.2887115 -4.88974" fill-rule="evenodd"/><path stroke="#000000" stroke-width="1.0" stroke-linejoin="round" stroke-linecap="butt" d="m233.6483 394.72177c0.64434814 -2.4448547 0.64434814 -2.4448547 1.2887115 -4.88974" fill-rule="evenodd"/><path fill="#000000" fill-opacity="0.0" d="m236.73753 396.2651c2.1876678 -2.0577698 2.1876678 -2.0577698 4.3753204 -4.115509" fill-rule="evenodd"/><path stroke="#000000" stroke-width="1.0" stroke-linejoin="round" stroke-linecap="butt" d="m236.73753 396.2651c2.1876678 -2.0577698 2.1876678 -2.0577698 4.3753204 -4.115509" fill-rule="evenodd"/><path fill="#000000" fill-opacity="0.0" d="m241.37007 403.72964c2.4448853 -0.90023804 2.4448853 -0.90023804 4.8897705 -1.8005066" fill-rule="evenodd"/><path stroke="#000000" stroke-width="1.0" stroke-linejoin="round" stroke-linecap="butt" d="m241.37007 403.72964c2.4448853 -0.90023804 2.4448853 -0.90023804 4.8897705 -1.8005066" fill-rule="evenodd"/><path fill="#000000" fill-opacity="0.0" d="m242.39813 400.89764c-0.951828 -2.2853699 -0.65737915 -6.9316406 1.8031464 -7.2047424" fill-rule="evenodd"/><path stroke="#000000" stroke-width="1.0" stroke-linejoin="round" stroke-linecap="butt" d="m242.39813 400.89764c-0.951828 -2.2853699 -0.65737915 -6.9316406 1.8031464 -7.2047424" fill-rule="evenodd"/><path fill="#000000" fill-opacity="0.0" d="m243.43045 397.03937c3.1161194 0.59902954 6.5004883 1.1384583 9.005249 3.086609" fill-rule="evenodd"/><path stroke="#000000" stroke-width="1.0" stroke-linejoin="round" stroke-linecap="butt" d="m243.43045 397.03937c3.1161194 0.59902954 6.5004883 1.1384583 9.005249 3.086609" fill-rule="evenodd"/><path fill="#000000" fill-opacity="0.0" d="m244.97375 395.2362c2.3490295 0.5872803 5.250717 -6.690277 2.8293915 -6.690277" fill-rule="evenodd"/><path stroke="#000000" stroke-width="1.0" stroke-linejoin="round" stroke-linecap="butt" d="m244.97375 395.2362c2.3490295 0.5872803 5.250717 -6.690277 2.8293915 -6.690277" fill-rule="evenodd"/><path fill="#000000" fill-opacity="0.0" d="m230.56168 379.53806c3.3451538 0.12860107 3.3451538 0.12860107 6.6902924 0.25723267" fill-rule="evenodd"/><path stroke="#000000" stroke-width="1.0" stroke-linejoin="round" stroke-linecap="butt" d="m230.56168 379.53806c3.3451538 0.12860107 3.3451538 0.12860107 6.6902924 0.25723267" fill-rule="evenodd"/><path fill="#000000" fill-opacity="0.0" d="m233.13417 379.0242c-3.6023712 -2.9606323 -5.6118774 -1.5389099 -7.204727 -5.9212646c-0.8224945 -2.262909 4.815567 0.2184143 7.204727 0.5170593" fill-rule="evenodd"/><path stroke="#000000" stroke-width="1.0" stroke-linejoin="round" stroke-linecap="butt" d="m233.13417 379.0242c-3.6023712 -2.9606323 -5.6118774 -1.5389099 -7.204727 -5.9212646c-0.8224945 -2.262909 4.815567 0.2184143 7.204727 0.5170593" fill-rule="evenodd"/><path fill="#000000" fill-opacity="0.0" d="m238.28084 377.22046c-1.5433044 -1.9291077 -1.5433044 -1.9291077 -3.086609 -3.8582458" fill-rule="evenodd"/><path stroke="#000000" stroke-width="1.0" stroke-linejoin="round" stroke-linecap="butt" d="m238.28084 377.22046c-1.5433044 -1.9291077 -1.5433044 -1.9291077 -3.086609 -3.8582458" fill-rule="evenodd"/><path fill="#000000" fill-opacity="0.0" d="m227.98688 367.95538c2.95932 0.25720215 2.95932 0.25720215 5.91864 0.5144348" fill-rule="evenodd"/><path stroke="#000000" stroke-width="1.0" stroke-linejoin="round" stroke-linecap="butt" d="m227.98688 367.95538c2.95932 0.25720215 2.95932 0.25720215 5.91864 0.5144348" fill-rule="evenodd"/><path fill="#000000" fill-opacity="0.0" d="m226.18636 366.41144c1.4681854 -2.3506165 4.992401 -3.585022 7.719162 -3.0892334" fill-rule="evenodd"/><path stroke="#000000" stroke-width="1.0" stroke-linejoin="round" stroke-linecap="butt" d="m226.18636 366.41144c1.4681854 -2.3506165 4.992401 -3.585022 7.719162 -3.0892334" fill-rule="evenodd"/><path fill="#000000" fill-opacity="0.0" d="m238.02362 368.98688c-1.8005219 -3.4750671 -1.8005219 -3.4750671 -3.6010437 -6.9501343" fill-rule="evenodd"/><path stroke="#000000" stroke-width="1.0" stroke-linejoin="round" stroke-linecap="butt" d="m238.02362 368.98688c-1.8005219 -3.4750671 -1.8005219 -3.4750671 -3.6010437 -6.9501343" fill-rule="evenodd"/><path fill="#000000" fill-opacity="0.0" d="m244.45932 376.70602c-4.2467194 -6.4343567 -4.2467194 -6.4343567 -8.493439 -12.868744" fill-rule="evenodd"/><path stroke="#000000" stroke-width="1.0" stroke-linejoin="round" stroke-linecap="butt" d="m244.45932 376.70602c-4.2467194 -6.4343567 -4.2467194 -6.4343567 -8.493439 -12.868744" fill-rule="evenodd"/><path fill="#000000" fill-opacity="0.0" d="m238.53806 370.27298c3.4950867 0.93136597 6.804184 2.5004883 10.039368 4.118103" fill-rule="evenodd"/><path stroke="#000000" stroke-width="1.0" stroke-linejoin="round" stroke-linecap="butt" d="m238.53806 370.27298c3.4950867 0.93136597 6.804184 2.5004883 10.039368 4.118103" fill-rule="evenodd"/><path fill="#000000" fill-opacity="0.0" d="m243.94489 370.01575c0.2572174 -3.7322693 0.2572174 -3.7322693 0.5144348 -7.464569" fill-rule="evenodd"/><path stroke="#000000" stroke-width="1.0" stroke-linejoin="round" stroke-linecap="butt" d="m243.94489 370.01575c0.2572174 -3.7322693 0.2572174 -3.7322693 0.5144348 -7.464569" fill-rule="evenodd"/><path fill="#000000" fill-opacity="0.0" d="m246.51706 374.39108c0.5598297 0.559021 1.5323944 0.79992676 1.8031464 1.5433044" fill-rule="evenodd"/><path stroke="#000000" stroke-width="1.0" stroke-linejoin="round" stroke-linecap="butt" d="m246.51706 374.39108c0.5598297 0.559021 1.5323944 0.79992676 1.8031464 1.5433044" fill-rule="evenodd"/><path fill="#000000" fill-opacity="0.0" d="m246.51706 373.87665c3.4750671 2.0590515 3.4750671 2.0590515 6.9501343 4.118103" fill-rule="evenodd"/><path stroke="#000000" stroke-width="1.0" stroke-linejoin="round" stroke-linecap="butt" d="m246.51706 373.87665c3.4750671 2.0590515 3.4750671 2.0590515 6.9501343 4.118103" fill-rule="evenodd"/><path fill="#000000" fill-opacity="0.0" d="m253.98163 376.44882c-0.29426575 -2.3541565 -0.94129944 -4.6533813 -1.545929 -6.94751" fill-rule="evenodd"/><path stroke="#000000" stroke-width="1.0" stroke-linejoin="round" stroke-linecap="butt" d="m253.98163 376.44882c-0.29426575 -2.3541565 -0.94129944 -4.6533813 -1.545929 -6.94751" fill-rule="evenodd"/><path fill="#000000" fill-opacity="0.0" d="m249.34908 371.55905c0 -1.4583435 0.64294434 -3.5072021 2.0577545 -3.8609009" fill-rule="evenodd"/><path stroke="#000000" stroke-width="1.0" stroke-linejoin="round" stroke-linecap="butt" d="m249.34908 371.55905c0 -1.4583435 0.64294434 -3.5072021 2.0577545 -3.8609009" fill-rule="evenodd"/><path fill="#000000" fill-opacity="0.0" d="m247.28871 363.32285c1.5446167 -0.38583374 1.5446167 -0.38583374 3.0892487 -0.7716675" fill-rule="evenodd"/><path stroke="#000000" stroke-width="1.0" stroke-linejoin="round" stroke-linecap="butt" d="m247.28871 363.32285c1.5446167 -0.38583374 1.5446167 -0.38583374 3.0892487 -0.7716675" fill-rule="evenodd"/><path fill="#000000" fill-opacity="0.0" d="m247.547 363.8367c-1.1276245 -1.8793945 -3.8749695 -3.5350342 -3.3438263 -5.661438c0.64035034 -2.5635376 5.7318726 0.06173706 7.719162 1.8031616" fill-rule="evenodd"/><path stroke="#000000" stroke-width="1.0" stroke-linejoin="round" stroke-linecap="butt" d="m247.547 363.8367c-1.1276245 -1.8793945 -3.8749695 -3.5350342 -3.3438263 -5.661438c0.64035034 -2.5635376 5.7318726 0.06173706 7.719162 1.8031616" fill-rule="evenodd"/><path fill="#000000" fill-opacity="0.0" d="m281.25778 224.38583c-2.6766968 22.762314 0.7585144 45.834106 0.7585144 68.753265" fill-rule="evenodd"/><path stroke="#000000" stroke-width="1.0" stroke-linejoin="round" stroke-linecap="butt" d="m281.25778 224.38583c-2.6766968 22.762314 0.7585144 45.834106 0.7585144 68.753265" fill-rule="evenodd"/><path fill="#000000" fill-opacity="0.0" d="m281.00525 292.1286c-2.5500793 -2.9151917 -5.602478 -5.3504944 -8.341217 -8.089233" fill-rule="evenodd"/><path stroke="#000000" stroke-width="1.0" stroke-linejoin="round" stroke-linecap="butt" d="m281.00525 292.1286c-2.5500793 -2.9151917 -5.602478 -5.3504944 -8.341217 -8.089233" fill-rule="evenodd"/><path fill="#000000" fill-opacity="0.0" d="m281.5118 291.62204c2.4083252 -3.1174011 4.948242 -6.1669006 7.834656 -8.847748" fill-rule="evenodd"/><path stroke="#000000" stroke-width="1.0" stroke-linejoin="round" stroke-linecap="butt" d="m281.5118 291.62204c2.4083252 -3.1174011 4.948242 -6.1669006 7.834656 -8.847748" fill-rule="evenodd"/><path fill="#000000" fill-opacity="0.0" d="m309.56982 292.63254c0 -21.991821 -1.6671448 -44.11319 0.7559204 -65.971115" fill-rule="evenodd"/><path stroke="#000000" stroke-width="1.0" stroke-linejoin="round" stroke-linecap="butt" d="m309.56982 292.63254c0 -21.991821 -1.6671448 -44.11319 0.7559204 -65.971115" fill-rule="evenodd"/><path fill="#000000" fill-opacity="0.0" d="m309.31497 228.17586c-3.962555 2.3130493 -7.5472717 5.642578 -9.858276 9.606293" fill-rule="evenodd"/><path stroke="#000000" stroke-width="1.0" stroke-linejoin="round" stroke-linecap="butt" d="m309.31497 228.17586c-3.962555 2.3130493 -7.5472717 5.642578 -9.858276 9.606293" fill-rule="evenodd"/><path fill="#000000" fill-opacity="0.0" d="m309.31497 229.18898c1.5873108 2.9970703 3.099121 6.034836 4.551178 9.099731" fill-rule="evenodd"/><path stroke="#000000" stroke-width="1.0" stroke-linejoin="round" stroke-linecap="butt" d="m309.31497 229.18898c1.5873108 2.9970703 3.099121 6.034836 4.551178 9.099731" fill-rule="evenodd"/><path fill="#000000" fill-opacity="0.0" d="m327.26248 245.36482c1.1957397 2.8695526 2.5094604 6.052948 5.0551147 7.8372803" fill-rule="evenodd"/><path stroke="#000000" stroke-width="1.0" stroke-linejoin="round" stroke-linecap="butt" d="m327.26248 245.36482c1.1957397 2.8695526 2.5094604 6.052948 5.0551147 7.8372803" fill-rule="evenodd"/><path fill="#000000" fill-opacity="0.0" d="m322.71127 259.01575c6.6994934 -2.4015808 6.6994934 -2.4015808 13.398956 -4.8031464" fill-rule="evenodd"/><path stroke="#000000" stroke-width="1.0" stroke-linejoin="round" stroke-linecap="butt" d="m322.71127 259.01575c6.6994934 -2.4015808 6.6994934 -2.4015808 13.398956 -4.8031464" fill-rule="evenodd"/><path fill="#000000" fill-opacity="0.0" d="m327.76642 259.51968c0.5101929 1.8713989 0.36141968 3.9734802 -0.25198364 5.8136597" fill-rule="evenodd"/><path stroke="#000000" stroke-width="1.0" stroke-linejoin="round" stroke-linecap="butt" d="m327.76642 259.51968c0.5101929 1.8713989 0.36141968 3.9734802 -0.25198364 5.8136597" fill-rule="evenodd"/><path fill="#000000" fill-opacity="0.0" d="m330.042 261.5433c2.4015808 1.1364746 2.4015808 1.1364746 4.8031616 2.2729797" fill-rule="evenodd"/><path stroke="#000000" stroke-width="1.0" stroke-linejoin="round" stroke-linecap="butt" d="m330.042 261.5433c2.4015808 1.1364746 2.4015808 1.1364746 4.8031616 2.2729797" fill-rule="evenodd"/><path fill="#000000" fill-opacity="0.0" d="m332.3176 265.08136c-1.7020874 2.5516357 -3.499176 5.0604553 -5.561676 7.330719" fill-rule="evenodd"/><path stroke="#000000" stroke-width="1.0" stroke-linejoin="round" stroke-linecap="butt" d="m332.3176 265.08136c-1.7020874 2.5516357 -3.499176 5.0604553 -5.561676 7.330719" fill-rule="evenodd"/><path fill="#000000" fill-opacity="0.0" d="m327.51443 267.35696c2.7207336 2.1747131 5.7313232 4.00354 8.847778 5.5590515" fill-rule="evenodd"/><path stroke="#000000" stroke-width="1.0" stroke-linejoin="round" stroke-linecap="butt" d="m327.51443 267.35696c2.7207336 2.1747131 5.7313232 4.00354 8.847778 5.5590515" fill-rule="evenodd"/><path fill="#000000" fill-opacity="0.0" d="m341.9239 252.18898c3.7913208 -0.7572174 3.7913208 -0.7572174 7.582672 -1.5144348" fill-rule="evenodd"/><path stroke="#000000" stroke-width="1.0" stroke-linejoin="round" stroke-linecap="butt" d="m341.9239 252.18898c3.7913208 -0.7572174 3.7913208 -0.7572174 7.582672 -1.5144348" fill-rule="evenodd"/><path fill="#000000" fill-opacity="0.0" d="m345.2066 252.94751c-0.43920898 3.2956238 -1.7913208 9.528473 1.5170593 9.858276" fill-rule="evenodd"/><path stroke="#000000" stroke-width="1.0" stroke-linejoin="round" stroke-linecap="butt" d="m345.2066 252.94751c-0.43920898 3.2956238 -1.7913208 9.528473 1.5170593 9.858276" fill-rule="evenodd"/><path fill="#000000" fill-opacity="0.0" d="m345.20734 258.76035c2.934021 -0.5314331 6.437134 3.6133423 6.068268 6.572174" fill-rule="evenodd"/><path stroke="#000000" stroke-width="1.0" stroke-linejoin="round" stroke-linecap="butt" d="m345.20734 258.76035c2.934021 -0.5314331 6.437134 3.6133423 6.068268 6.572174" fill-rule="evenodd"/><path fill="#000000" fill-opacity="0.0" d="m342.67978 270.89502c4.1286316 -1.8638306 8.390076 -3.7980652 12.892395 -4.2966003" fill-rule="evenodd"/><path stroke="#000000" stroke-width="1.0" stroke-linejoin="round" stroke-linecap="butt" d="m342.67978 270.89502c4.1286316 -1.8638306 8.390076 -3.7980652 12.892395 -4.2966003" fill-rule="evenodd"/><path fill="#000000" fill-opacity="0.0" d="m516.7428 219.94226c1.8284302 2.1707306 7.1627197 7.4418793 7.1627197 4.603668" fill-rule="evenodd"/><path stroke="#000000" stroke-width="1.0" stroke-linejoin="round" stroke-linecap="butt" d="m516.7428 219.94226c1.8284302 2.1707306 7.1627197 7.4418793 7.1627197 4.603668" fill-rule="evenodd"/><path fill="#000000" fill-opacity="0.0" d="m523.9055 218.66405c0.9882202 3.2923737 2.366394 11.012985 5.118103 8.952744c2.088379 -1.5635986 -1.5354614 -5.0656586 -1.5354614 -7.67453" fill-rule="evenodd"/><path stroke="#000000" stroke-width="1.0" stroke-linejoin="round" stroke-linecap="butt" d="m523.9055 218.66405c0.9882202 3.2923737 2.366394 11.012985 5.118103 8.952744c2.088379 -1.5635986 -1.5354614 -5.0656586 -1.5354614 -7.67453" fill-rule="evenodd"/><path fill="#000000" fill-opacity="0.0" d="m537.46454 226.85039c-2.5460815 -2.2644958 -4.0289307 -5.56575 -5.370056 -8.698151" fill-rule="evenodd"/><path stroke="#000000" stroke-width="1.0" stroke-linejoin="round" stroke-linecap="butt" d="m537.46454 226.85039c-2.5460815 -2.2644958 -4.0289307 -5.56575 -5.370056 -8.698151" fill-rule="evenodd"/><path fill="#000000" fill-opacity="0.0" d="m525.18634 215.33595c-0.44519043 -3.9976501 -1.0236206 -8.001251 -1.0236206 -12.023621" fill-rule="evenodd"/><path stroke="#000000" stroke-width="1.0" stroke-linejoin="round" stroke-linecap="butt" d="m525.18634 215.33595c-0.44519043 -3.9976501 -1.0236206 -8.001251 -1.0236206 -12.023621" fill-rule="evenodd"/><path fill="#000000" fill-opacity="0.0" d="m531.5827 217.64043c-1.093811 -4.592819 -1.8328857 -9.414734 -4.0945435 -13.559067" fill-rule="evenodd"/><path stroke="#000000" stroke-width="1.0" stroke-linejoin="round" stroke-linecap="butt" d="m531.5827 217.64043c-1.093811 -4.592819 -1.8328857 -9.414734 -4.0945435 -13.559067" fill-rule="evenodd"/><path fill="#000000" fill-opacity="0.0" d="m518.0236 209.45407c5.913147 0.49064636 11.729126 2.6738434 17.65094 2.301834c2.3969727 -0.15057373 8.240356 -0.04890442 6.908142 -2.0472412c-1.6779785 -2.5169067 -5.508972 -2.5918121 -8.4436035 -3.3254547" fill-rule="evenodd"/><path stroke="#000000" stroke-width="1.0" stroke-linejoin="round" stroke-linecap="butt" d="m518.0236 209.45407c5.913147 0.49064636 11.729126 2.6738434 17.65094 2.301834c2.3969727 -0.15057373 8.240356 -0.04890442 6.908142 -2.0472412c-1.6779785 -2.5169067 -5.508972 -2.5918121 -8.4436035 -3.3254547" fill-rule="evenodd"/><path fill="#000000" fill-opacity="0.0" d="m516.7428 204.08136c2.9422607 -0.25590515 2.9422607 -0.25590515 5.8845215 -0.5118103" fill-rule="evenodd"/><path stroke="#000000" stroke-width="1.0" stroke-linejoin="round" stroke-linecap="butt" d="m516.7428 204.08136c2.9422607 -0.25590515 2.9422607 -0.25590515 5.8845215 -0.5118103" fill-rule="evenodd"/><path fill="#000000" fill-opacity="0.0" d="m533.8845 207.40683c0.25408936 2.1593628 0.5159302 4.3600616 1.2781982 6.3963165" fill-rule="evenodd"/><path stroke="#000000" stroke-width="1.0" stroke-linejoin="round" stroke-linecap="butt" d="m533.8845 207.40683c0.25408936 2.1593628 0.5159302 4.3600616 1.2781982 6.3963165" fill-rule="evenodd"/></g></svg>